<svg width="30" height="30" viewBox="0 0 30 30" fill="none" xmlns="http://www.w3.org/2000/svg">
<g opacity="0.5" clip-path="url(#clip0_119_564)">
<path fill-rule="evenodd" clip-rule="evenodd" d="M21.1523 3.2228C21.1523 4.67553 21.97 5.9144 23.3469 6.36023C23.6587 6.46115 23.7153 6.39662 23.9063 6.56257C23.4527 6.56257 23.1475 6.63385 22.7996 6.74498L21.8359 7.12891C20.175 8.01794 18.8086 9.85657 18.8086 12.0118C18.8086 12.6432 18.7085 13.3363 19.0453 13.7087C19.1675 13.8439 19.3762 14.004 19.6289 14.004H29.1211C29.7546 14.004 29.9487 13.6081 30.0001 13.0926V11.8947C30.0001 11.1396 29.7734 10.3225 29.5126 9.80405C29.3493 9.47956 29.247 9.26158 29.0518 8.97594C28.1649 7.67747 26.5304 6.56273 24.9025 6.56273L25.1473 6.45605C26.2181 6.13649 27.0052 5.61115 27.457 4.48834C27.5661 4.21719 27.7362 3.52704 27.7085 3.17456C27.627 2.13736 27.3052 1.6 26.7772 0.996611C26.2211 0.361123 25.375 0.0270795 24.5174 0.000244141H24.292C23.6477 0.0204942 23.0105 0.214433 22.4988 0.585025C21.6643 1.18923 21.1523 2.14312 21.1523 3.22296V3.2228ZM9.72652 5.97663C9.77015 6.13995 9.79698 6.1225 10.0449 6.30277C11.5721 7.41356 10.5859 7.43744 11.9163 6.99457C13.7265 6.39201 15.3684 6.3655 17.2223 6.74235L18.8084 7.26556C18.9745 7.26556 19.5479 6.6062 19.9208 6.32731C20.2025 6.11657 20.219 6.17963 20.2732 5.97663C20.0596 5.92691 20.0297 5.84855 19.7127 5.71684C18.1237 5.056 16.9377 4.68755 14.9998 4.68755C11.7762 4.68755 10.3566 5.82978 9.72635 5.97663H9.72652ZM3.74996 16.2306C3.74996 18.044 4.37705 19.9933 5.19594 21.4643C5.93631 22.7942 7.15641 24.2012 8.37882 25.0197C8.42443 24.8236 8.47052 24.7749 8.56552 24.6205C8.65639 24.4725 8.70611 24.3564 8.79979 24.2102C8.97134 23.9425 9.15293 23.7402 9.31641 23.4964C8.67286 23.0653 7.71106 22.0588 7.31166 21.4582C6.11625 19.6602 5.56637 18.2322 5.56637 15.7622H3.74996V16.2309V16.2306ZM24.4336 16.4064C24.4336 18.626 23.1039 21.4177 21.4595 22.8658C21.3112 22.9965 21.2323 23.0451 21.079 23.1885C20.9676 23.2927 20.801 23.4177 20.6836 23.4962C20.8469 23.7402 21.0285 23.9424 21.2002 24.2101L21.6212 25.0196C24.3396 23.1992 26.2502 19.4911 26.2502 16.2304V15.7617H24.4338V16.4062L24.4336 16.4064ZM2.34382 2.92975C2.34382 4.06029 2.43733 4.74583 3.29574 5.61049C3.58994 5.90699 3.77581 6.02356 4.15875 6.21239C4.50135 6.38131 4.87458 6.50396 5.39054 6.50396V6.56257C3.87525 6.56257 2.57628 7.18209 1.59654 8.15936C1.33214 8.4231 1.19632 8.57786 0.983446 8.89395C0.0346583 10.3024 0.0009083 11.4326 -0.000244141 13.0068V13.2424C-0.000244141 13.6642 0.425665 14.0042 0.878739 14.0042H10.3709C11.8661 14.0042 10.9684 10.5273 10.74 9.9435C9.97544 7.98797 8.05795 6.56273 5.85909 6.56273V6.50412C7.38377 6.50412 8.84737 4.97879 8.84737 3.45724C8.84737 2.75869 8.8365 2.45148 8.51711 1.79542C7.96213 0.655653 6.83653 0.0476588 5.69512 0.000244141H5.40585C4.64212 0.0320186 3.89237 0.316507 3.32339 0.862928C2.81369 1.35239 2.34365 2.21688 2.34365 2.92991L2.34382 2.92975ZM11.7188 19.2774C11.7188 19.6767 11.8521 20.2335 11.9767 20.543C12.4061 21.61 13.2176 22.1841 14.2869 22.4518L14.5898 22.5589C12.4522 22.5589 10.528 24.2023 9.78447 26.0737C9.59201 26.5582 8.72834 30.0002 10.1954 30.0002H19.8048C20.2363 30.0002 20.6251 29.5621 20.6251 28.9456C20.6251 27.8616 20.5957 27.0386 20.2327 26.1154C19.8853 25.2316 19.6691 25.0357 19.1604 24.375C18.4459 23.4471 16.7628 22.5588 15.4104 22.5588V22.5002C17.2752 22.5002 19.3008 19.7276 17.721 17.4357C15.8804 14.7656 11.7191 16.056 11.7191 19.2774H11.7188Z" fill="#011640"/>
</g>
<defs>
<clipPath id="clip0_119_564">
<rect width="30" height="30" fill="white"/>
</clipPath>
</defs>
</svg>
