<svg width="30" height="42" viewBox="0 0 30 42" fill="none" xmlns="http://www.w3.org/2000/svg">
<g opacity="0.5">
<path fill-rule="evenodd" clip-rule="evenodd" d="M4.48347 15.7497C4.48347 13.9351 4.73611 12.5499 5.40703 11.1009C5.95267 9.92298 6.58601 8.99926 7.47964 8.10074C8.54448 7.02924 9.10196 6.62096 10.4076 5.96125C13.1463 4.57601 16.8008 4.5445 19.5381 5.93394C19.829 6.08171 20.0733 6.18395 20.3475 6.34993C22.196 7.47395 23.629 9.0861 24.5665 11.0456C26.4582 14.9989 25.4776 19.9257 22.3993 23.0309C18.9423 26.5179 13.3857 27.1117 9.08526 24.2446L7.6418 23.0723L6.43986 21.6569C6.04315 21.1037 5.81696 20.6421 5.48915 19.9887C4.95186 18.9172 4.48417 17.3212 4.48417 15.7504L4.48347 15.7497ZM22.9073 32.0735L18.7969 31.5322C18.5164 31.521 17.0173 32.554 16.6776 32.7781C16.4027 32.9594 16.2197 33.1464 15.8961 33.2221C15.8961 33.7368 16.9748 36.896 17.2101 37.6418L18.586 41.9992C18.9493 41.9019 22.8315 38.5242 23.2428 38.3169C23.4627 38.2063 23.5427 38.3001 23.9617 38.3092L29.3465 38.5536L26.422 29.4382C26.2828 29.0222 26.0998 28.4669 26.0044 28.0537C24.9298 28.5726 25.5562 27.7014 24.277 29.843L22.9066 32.0735H22.9073ZM0.652128 38.5536L3.26134 38.4717C3.6316 38.4521 3.70607 38.3855 4.15497 38.387C4.83772 38.3884 5.27131 38.3134 5.95407 38.3092C6.26517 38.3078 6.54912 38.2343 6.70711 38.2931L10.8315 41.5993C11.018 41.7506 11.1794 41.9362 11.4126 41.9985L12.4218 38.7483C12.7405 37.7945 14.1032 33.7669 14.1032 33.2214C13.7887 33.1366 13.0189 32.5806 12.6702 32.3663C10.9665 31.3214 11.8072 31.4818 10.1905 31.6624L7.17481 32.0042C7.16506 32.0035 7.13931 31.9986 7.13235 31.9979C6.96253 31.9811 5.27967 29.1357 5.07157 28.775C4.90871 28.4928 4.94281 28.4108 4.66303 28.2841C4.47999 28.2007 4.20786 28.1552 3.99559 28.053L0.65352 38.5529L0.652128 38.5536ZM6.8477 15.4212C6.8477 18.4992 8.59738 21.395 11.304 22.7494C13.607 23.9021 16.2816 23.9687 18.5874 22.804C23.4474 20.3487 24.5067 14.113 21.3337 10.36C21.2356 10.2444 21.1938 10.2143 21.1027 10.1002C20.6336 9.5154 20.8946 9.80743 20.3239 9.32491C20.1011 9.13652 19.9773 9.01957 19.7406 8.84518C19.2945 8.51533 18.9744 8.35706 18.451 8.09164C16.4104 7.05656 13.6578 7.02294 11.6019 8.06362C10.1571 8.79476 9.28848 9.47197 8.34892 10.7781C8.07192 11.1633 7.8158 11.6346 7.6084 12.0835C7.23048 12.9015 6.8477 14.2664 6.8477 15.4198V15.4212ZM8.31481 1.47638C8.05313 1.97361 7.75455 2.4001 7.4532 2.90644C7.28755 3.18447 7.1588 3.37145 7.01403 3.61306C6.39949 4.63974 6.62846 4.54029 5.83784 4.80852C5.49542 4.92477 5.30194 5.01721 4.94142 5.13697L3.15973 5.72244C2.9224 5.83449 2.93214 5.71684 2.85976 6.56913L2.63148 8.71843C2.55353 9.38093 2.75676 9.26678 2.34752 9.66316C1.92855 10.0687 1.57499 10.4321 1.16158 10.8481C0.82473 11.1871 0.235935 11.7032 0 12.0583C0.135715 12.6444 1.16158 15.2069 1.17272 15.4352C1.18942 15.7861 0 18.6525 0 18.8668C0 19.0482 1.98492 20.9062 2.2647 21.1821C2.75328 21.6625 2.56397 21.8236 2.71361 23.0274C2.78738 23.6192 2.93493 24.5233 2.93493 25.1837C3.29266 25.2139 3.50075 25.3413 3.80977 25.4513C4.14871 25.5724 4.3923 25.66 4.71732 25.7685L6.06751 26.2146C6.33128 26.305 6.31945 26.272 6.47535 26.4604L7.37107 27.9381C7.69261 28.4641 7.99118 28.9627 8.31481 29.4494C8.88064 29.4494 9.74643 29.2771 10.2858 29.2176C10.7076 29.1714 10.9094 29.1602 11.3166 29.1049C12.2325 28.9802 11.8225 28.9732 12.8637 29.6287C15.8216 31.4902 14.3552 31.2408 17.7703 29.2015C18.4064 28.8219 20.7373 29.4487 21.6838 29.4487L23.5233 26.4597C23.7223 26.2188 23.8796 26.2356 24.3027 26.0956C24.6285 25.9877 24.879 25.9023 25.22 25.7881C25.568 25.6712 25.79 25.6004 26.138 25.4814C26.4832 25.363 26.6955 25.2139 27.0644 25.183L27.262 23.0849C27.411 21.9973 27.2766 21.6387 27.6935 21.222C30.6152 18.2982 30.1761 19.5545 29.4182 17.2372C28.7438 15.1747 28.5712 15.9689 29.3945 13.8287L29.9993 12.059L27.6935 9.70308C27.2558 9.28359 27.4179 9.12041 27.2502 7.77019L27.095 6.20356C27.0045 5.59498 27.1903 5.8485 25.1177 5.15798C24.838 5.06484 24.538 4.94788 24.2805 4.85194C23.4244 4.53329 23.684 4.80362 23.0437 3.71741L21.6831 1.47708L18.6584 1.88116C17.9485 1.9561 18.1274 2.02263 17.1015 1.33001L14.9983 0.000793457C14.4965 0.268317 14.0761 0.57786 13.5966 0.887404C11.446 2.27475 12.3111 1.9554 10.3366 1.7383C9.94827 1.69558 8.50968 1.57232 8.31342 1.47778L8.31481 1.47638Z" fill="#011640"/>
</g>
</svg>
