<svg width="30" height="30" viewBox="0 0 30 30" fill="none" xmlns="http://www.w3.org/2000/svg">
<g opacity="0.5" clip-path="url(#clip0_119_567)">
<path fill-rule="evenodd" clip-rule="evenodd" d="M14.3564 -2.01842e-05H15.8308C17.7226 0.0933299 19.6012 0.546949 21.3484 1.38596C24.5836 2.93929 27.1161 5.41971 28.6331 8.6911C29.6315 10.8441 29.9999 12.6994 29.9999 15.4102C29.9999 18.389 28.8412 21.4676 27.2709 23.638C26.7422 24.3688 26.246 24.9943 25.62 25.6201C24.437 26.8028 22.9269 27.8828 21.3088 28.6331C19.4853 29.4787 17.4626 29.9385 15.428 29.9999H14.4915C12.4667 29.939 10.4584 29.4816 8.65151 28.6139C7.01403 27.8277 5.58902 26.8289 4.37982 25.62C3.20409 24.4446 2.11265 22.9171 1.36685 21.3088C0.368476 19.1558 0 17.3005 0 14.5897L23.9063 6.09364L0 14.5897C0 10.7113 1.85515 6.90453 4.37989 4.3798C7.05957 1.70012 10.6751 0.179329 14.3564 -9.15527e-05V-2.01842e-05ZM13.3594 14.8242V15.1757C13.3594 15.8761 14.1239 16.6406 14.8243 16.6406H15.1758C15.8762 16.6406 16.6407 15.8761 16.6407 15.1757V14.8242C16.6407 14.1238 15.8762 13.3593 15.1758 13.3593H14.8243C14.1239 13.3593 13.3594 14.1238 13.3594 14.8242ZM6.09381 23.9062L7.12822 21.6008C7.25897 21.3288 7.34732 21.1149 7.47978 20.839L11.368 12.4812C11.8348 11.4317 11.8478 11.7014 13.2414 11.0147C13.4889 10.8928 13.7541 10.7862 14.003 10.6632C14.2526 10.5399 14.5152 10.439 14.7654 10.3123L16.2899 9.61019C16.791 9.36254 17.2943 9.13552 17.8117 8.90549L21.6007 7.12813C21.8812 6.99325 22.0866 6.91631 22.3627 6.77693L23.9061 6.09372C23.8106 6.50351 21.4175 11.4617 21.0943 12.1882L18.9851 16.7586C18.8557 17.0212 18.7557 17.2401 18.6319 17.5188C18.1652 18.5683 18.1522 18.2986 16.7586 18.9852C16.5111 19.1072 16.2458 19.2138 15.9969 19.3367C15.7473 19.4601 15.4847 19.561 15.2346 19.6876L6.87486 23.5741C6.64413 23.6911 6.34588 23.8474 6.09366 23.9062L6.09381 23.9062Z" fill="#011640"/>
</g>
<defs>
<clipPath id="clip0_119_567">
<rect width="30" height="30" fill="white"/>
</clipPath>
</defs>
</svg>
