<svg width="30" height="30" viewBox="0 0 30 30" fill="none" xmlns="http://www.w3.org/2000/svg">
<g opacity="0.5" clip-path="url(#clip0_119_561)">
<path fill-rule="evenodd" clip-rule="evenodd" d="M-0.000150605 15.4102C-0.000150605 18.416 0.293738 19.3732 1.29709 21.8473C1.50727 22.3655 2.20757 23.5337 2.54392 23.9988C2.67328 24.1775 2.76298 24.2892 2.89599 24.4672L3.70675 25.4142C3.88569 25.5917 3.94312 25.7105 4.11438 25.8856C4.60825 26.3904 5.83029 27.3609 6.45641 27.7623C7.77003 28.6045 9.09767 29.2008 10.6169 29.5783C11.5933 29.821 12.5759 29.9611 13.5553 30.0001H14.6902C16.3196 29.9351 17.9303 29.5897 19.4786 28.9711C20.3594 28.6192 21.4784 28.0075 22.2408 27.4559L24.1274 25.8856C24.3005 25.7163 24.3517 25.6101 24.5059 25.4437L25.2957 24.5343C25.8471 23.7935 26.579 22.7352 26.9281 21.8894C27.9449 19.4273 28.2419 18.3537 28.2419 15.4103C28.2419 14.0417 27.9116 12.5236 27.5618 11.4616C27.0547 9.92205 26.7339 9.56765 26.074 8.32045C25.84 8.32045 25.6015 8.3153 25.3685 8.3182C25.0525 8.32204 25.0232 8.37236 24.7283 8.38106C24.497 8.38779 24.2617 8.36188 24.0318 8.3877C22.7784 8.52828 22.9501 8.24543 22.3679 8.83321C22.1374 9.06583 21.8522 9.29312 21.6795 9.551L22.6342 10.8229C23.1938 11.5835 23.8104 12.9503 24.0093 13.9009C24.3284 15.4263 24.3404 16.6005 23.988 18.1291C23.3672 20.8228 22.015 22.6006 19.9052 24.1829C18.9545 24.896 17.6178 25.4505 16.4184 25.7352C14.8863 26.0987 13.4195 26.1007 11.871 25.7463C9.56067 25.2174 7.9137 24.1209 6.37279 22.3968C3.99054 19.731 3.26835 15.1439 4.84349 11.8752L5.25308 11.0544C5.40882 10.7696 5.5364 10.5498 5.71805 10.2888C6.09294 9.75013 6.38813 9.40293 6.84066 8.95041C7.85645 7.93461 8.44002 7.53381 9.66758 6.91405C12.6837 5.3912 16.2093 5.83465 19.0188 7.52427C19.5148 7.82265 19.9318 8.13048 20.3905 8.43774C20.9368 7.62192 21.5716 7.70059 21.5644 6.74054C21.5574 5.81295 21.6796 4.96739 21.6796 3.98461C21.6796 3.68885 19.0561 2.61085 18.5823 2.45287C15.3963 1.39115 11.8792 1.54212 8.76319 2.78698C8.5098 2.88819 8.39297 2.95787 8.15259 3.05534C7.7805 3.2063 7.39074 3.43247 7.04176 3.64367L4.11373 5.87197L3.31465 6.77215C3.17641 6.94912 3.08558 7.03639 2.94603 7.22384L2.23759 8.21456C1.47705 9.40078 1.32422 9.80354 0.820062 11.0744C0.663016 11.4702 0.527296 11.9496 0.421507 12.375C0.201605 13.2601 -0.000244141 14.3322 -0.000244141 15.4103L-0.000150605 15.4102ZM11.4842 15.6445C11.4842 16.509 11.5919 17.1059 12.2429 17.7569C13.0193 18.5333 14.2858 18.7599 15.2747 18.2632C15.4243 18.188 15.53 18.1311 15.6457 18.0481C16.2062 17.6457 16.7577 16.8696 16.7577 16.1133C16.7577 15.6021 16.7618 15.2163 16.5233 14.7656C16.2968 14.8261 16.1946 15.006 16.0399 15.1611L14.7069 16.4649L13.5213 15.248C13.6929 15.1302 15.17 13.7173 15.2342 13.4766C14.3291 12.9977 13.0002 13.2437 12.2429 14.0009C11.9221 14.3216 11.4842 15.0116 11.4842 15.6445ZM29.9998 3.39842L26.6303 0H26.5962C26.273 0.248524 24.4508 2.12138 24.0672 2.50488C23.1141 3.45791 23.615 2.96479 23.4213 4.37849C23.4023 4.51739 23.2386 6.61109 23.3137 6.6861C23.3978 6.77028 26.6634 6.53345 26.782 6.50876C27.0426 6.45451 27.0026 6.43412 27.1737 6.25574C27.2918 6.13256 27.3737 6.05389 27.495 5.93258C27.8782 5.54936 29.8334 3.64704 29.9998 3.39842ZM5.74208 15.5273C5.74208 17.4214 5.97022 18.547 6.85787 20.0951C6.97638 20.3018 7.0962 20.4997 7.24838 20.7007C8.20628 21.9662 9.02873 22.7175 10.5181 23.4662C13.0625 24.7454 16.6923 24.4548 18.9428 22.7514C20.9839 21.2065 22.4999 18.9049 22.4999 16.2304C22.4999 14.4054 22.1841 13.2395 21.1998 11.7882C20.9988 11.4918 20.6668 11.0247 20.3905 10.8397L17.7679 13.4321C17.9509 13.7904 18.1194 14.0517 18.2735 14.4802C19.2638 17.2351 17.0933 20.2734 14.121 20.2734C10.3646 20.2734 8.18486 15.6329 11.0299 12.7878C12.1594 11.6584 13.8934 11.1772 15.4764 11.7109C15.9353 11.8656 16.2024 12.0453 16.5819 12.2461C16.8808 11.7996 19.0068 9.96386 19.1014 9.60936C18.7571 9.51742 14.9431 6.1913 10.3318 8.51547C8.93267 9.22063 8.08795 9.9764 7.19778 11.1823C6.49785 12.1303 5.74208 13.8922 5.74208 15.5274V15.5273Z" fill="#011640"/>
</g>
<defs>
<clipPath id="clip0_119_561">
<rect width="30" height="30" fill="white"/>
</clipPath>
</defs>
</svg>
