<svg width="30" height="30" viewBox="0 0 30 30" fill="none" xmlns="http://www.w3.org/2000/svg">
<path fill-rule="evenodd" clip-rule="evenodd" d="M10.5468 13.9452C10.5555 13.5593 10.7224 13.3675 10.7224 12.9492C11.4331 12.7838 12.7547 12.0116 14.1208 12.0116C15.7318 12.0116 16.963 12.7197 17.058 14.2346C17.2027 16.5413 15.5856 19.2026 15.5856 21.5624C15.5856 23.2537 18.1681 22.2799 18.3396 22.2656C18.2642 22.5886 18.1806 22.9386 18.1052 23.2616L16.6819 23.7719C14.558 24.6058 11.7135 24.1246 11.7244 21.7384C11.7267 21.2873 11.8232 20.719 11.9181 20.2389L12.6353 17.6161C12.9085 16.6736 14.1035 13.6524 12.1872 13.6524C10.9493 13.6524 11.4298 13.7394 10.5468 13.9452ZM14.4916 30C6.1181 29.7483 0 22.9552 0 14.59C0 6.12979 7.21209 0 15.41 0C23.912 0 30 7.22716 30 15.41C30 23.946 22.734 30 14.4916 30ZM16.5236 10.0196C15.7748 10.0196 15.2947 9.96571 14.691 9.39102C13.7964 8.53972 13.8906 7.11524 14.723 6.40262C15.439 5.78949 16.5044 5.59919 17.3666 6.01259C17.584 6.11697 17.8154 6.30163 17.9756 6.4584C18.7896 7.25467 18.8582 8.47528 17.9744 9.36125C17.6406 9.69588 17.1639 10.02 16.5236 10.02V10.0196Z" fill="#011640"/>
</svg>
