<svg width="174" height="60" viewBox="0 0 174 60" fill="none" xmlns="http://www.w3.org/2000/svg">
<path d="M79.6899 8.63863C79.1086 7.55881 78.1927 6.74023 76.9596 6.26998C75.8146 5.81715 74.3174 5.60815 72.503 5.60815H57.8298V27.5182H61.529V19.1408H72.5559C74.4407 19.1408 75.9203 18.9666 77.0301 18.6357C78.2455 18.2526 79.1615 17.5559 79.7428 16.5806C80.3064 15.6401 80.5707 14.3861 80.5707 12.6967C80.5178 11.0421 80.2536 9.68363 79.6899 8.65605V8.63863ZM73.1548 15.5182H61.5113V9.21338H73.3486C74.6521 9.21338 75.5857 9.45721 76.0613 9.92746C76.5545 10.3977 76.8187 11.3382 76.8187 12.6619C76.8187 13.7591 76.6425 14.3164 76.5016 14.5951C76.3255 14.926 76.0436 15.1176 75.6033 15.2743C75.0748 15.4485 74.2469 15.5182 73.1548 15.5182Z" fill="#27348B"/>
<path d="M110.428 8.58636C109.794 7.3672 108.86 6.49637 107.627 6.02613C106.482 5.59071 104.967 5.38171 103.118 5.38171H94.0812C92.5487 5.38171 91.2452 5.52105 90.2059 5.81713C89.1138 6.13063 88.2154 6.60087 87.546 7.28012C86.8591 7.94195 86.3835 8.81277 86.0664 9.84035C85.7669 10.8157 85.626 12.0174 85.6084 13.4282V19.7678C85.626 21.1611 85.7846 22.3628 86.1016 23.3208C86.4187 24.3309 86.9471 25.1669 87.6341 25.7939C88.3035 26.4209 89.2371 26.8737 90.3292 27.1524C91.3509 27.4136 92.6368 27.5356 94.0812 27.5356H103.118C104.615 27.5356 105.848 27.4485 106.817 27.2221C107.856 27.0131 108.737 26.5951 109.406 26.0029C110.076 25.4107 110.586 24.5573 110.886 23.5298C111.185 22.5718 111.326 21.3004 111.326 19.7678V13.3933C111.344 11.3382 111.062 9.75327 110.445 8.58636H110.428ZM107.645 13.2888V19.7852C107.627 21.074 107.469 22.0145 107.24 22.6067C107.046 23.0943 106.711 23.3904 106.183 23.582C105.531 23.8258 104.509 23.9478 103.135 23.9478H94.0988C93.13 23.9478 92.3373 23.8781 91.7032 23.7388C91.1395 23.6168 90.7167 23.4078 90.3644 23.1466C90.0474 22.8853 89.8008 22.5022 89.6598 21.9971C89.4837 21.4398 89.3956 20.6734 89.3604 19.8026V13.3062C89.378 12.1393 89.5718 11.2163 89.8888 10.5718C90.1883 9.9971 90.611 9.61393 91.1923 9.40494C91.8617 9.14369 92.8305 9.00436 94.0459 9.00436H103.082C104.386 9.00436 105.39 9.12627 106.042 9.38752C106.57 9.59652 106.958 9.94485 107.187 10.4673C107.486 11.0943 107.627 12.0523 107.645 13.3237V13.2888Z" fill="#27348B"/>
<path d="M126.598 16.1277L142.346 5.57324H135.811L122.776 14.3338H120.362V5.59066H116.646V27.5529H120.362V17.9564H122.846L136.145 27.5529H142.575L126.598 16.1277Z" fill="#52AE32" stroke="#52AE32" stroke-width="0.202436" stroke-miterlimit="22.9256"/>
<path d="M162.092 15.971L172.556 5.5907H167.5L159.133 13.9332L150.784 5.5907H145.887L156.174 15.971L144.46 27.553H149.515L159.133 18.0435L168.733 27.553H173.789L162.092 15.971Z" fill="#27348B"/>
<path d="M58.4286 38.6298H57.9001V33.2133H59.9435C61.4231 33.2133 61.8283 33.9099 61.8283 34.7285C61.8283 35.9477 60.8418 36.2437 59.7849 36.2437H58.4462V38.6472H58.4286V38.6298ZM58.4286 35.8083H59.6088C60.6305 35.8083 61.2822 35.6342 61.2822 34.7459C61.2822 33.8054 60.7185 33.6487 59.5559 33.6487H58.4462V35.8083H58.4286Z" fill="#27348B"/>
<path d="M66.056 33.0741C67.8175 33.0741 68.7159 34.3455 68.7159 35.9304C68.7159 37.4805 67.8175 38.7867 66.0736 38.7867C64.3298 38.7867 63.4314 37.4979 63.4314 35.9304C63.449 34.3455 64.3826 33.0741 66.056 33.0741ZM68.1874 35.9304C68.1874 34.4152 67.3947 33.5095 66.0736 33.5095C64.6116 33.5095 63.9951 34.6764 63.9951 35.9304C63.9951 37.2018 64.6292 38.3513 66.1089 38.3513C67.5709 38.3513 68.1874 37.2018 68.1874 35.9304Z" fill="#27348B"/>
<path d="M74.652 34.7635C74.4406 33.823 73.8241 33.4921 72.8553 33.4921C71.4989 33.4921 70.9 34.6241 70.9 35.8955C70.9 37.1147 71.358 38.3339 72.9081 38.3339C73.877 38.3339 74.4759 37.7069 74.7049 36.8535H75.2685C75.0219 37.8984 74.3173 38.7693 72.8201 38.7693C71.0762 38.7693 70.3716 37.4456 70.3716 35.913C70.3716 33.8578 71.5166 33.0566 73.0138 33.0566C74.1764 33.0566 75.0219 33.6488 75.2157 34.7809H74.652V34.7635Z" fill="#27348B"/>
<path d="M81.1696 34.7635C80.9582 33.823 80.3417 33.4921 79.3729 33.4921C78.0165 33.4921 77.4176 34.6241 77.4176 35.8955C77.4176 37.1147 77.8756 38.3339 79.4257 38.3339C80.3945 38.3339 80.9934 37.7069 81.2224 36.8535H81.7861C81.5395 37.8984 80.8349 38.7693 79.3376 38.7693C77.5938 38.7693 76.8892 37.4456 76.8892 35.913C76.8892 33.8578 78.0341 33.0566 79.5314 33.0566C80.694 33.0566 81.5395 33.6488 81.7333 34.7809H81.1696V34.7635Z" fill="#27348B"/>
<path d="M84.1639 37.9332L87.4579 33.1785H88.0744V38.595H87.546V33.8751H87.5108L84.2696 38.595H83.6355V33.1785H84.1639V37.9332Z" fill="#27348B"/>
<path d="M90.6815 37.9333L93.9755 33.196H94.5744V38.6126H94.046V33.8927H94.0284L90.7872 38.6126H90.1531V33.196H90.6815V37.9333ZM91.5799 31.6285C91.6856 32.0291 91.9674 32.2207 92.4078 32.2207C92.8482 32.2207 93.13 32.0291 93.2533 31.6285H93.5528C93.4823 32.2555 93.0243 32.5865 92.3902 32.5865C91.756 32.5865 91.3509 32.2207 91.298 31.6285H91.5975H91.5799Z" fill="#27348B"/>
<path d="M100.722 34.7635C100.511 33.823 99.8942 33.4921 98.9253 33.4921C97.569 33.4921 96.9701 34.6241 96.9701 35.8955C96.9701 37.1147 97.4281 38.3339 98.9782 38.3339C99.947 38.3339 100.546 37.7069 100.775 36.8535H101.339C101.092 37.8984 100.387 38.7693 98.8901 38.7693C97.1462 38.7693 96.4417 37.4456 96.4417 35.913C96.4417 33.8578 97.5866 33.0566 99.0839 33.0566C100.246 33.0566 101.092 33.6488 101.286 34.7809H100.722V34.7635Z" fill="#27348B"/>
<path d="M103.717 35.9477L106.535 33.2133H107.222L105.003 35.3729L107.61 38.6298H106.958L104.615 35.6864L103.717 36.5398V38.6298H103.188V33.2133H103.717V35.9477Z" fill="#27348B"/>
<path d="M111.379 33.0741C113.14 33.0741 114.039 34.3455 114.039 35.9304C114.039 37.4805 113.141 38.7867 111.397 38.7867C109.653 38.7867 108.754 37.4979 108.754 35.9304C108.754 34.3455 109.67 33.0741 111.361 33.0741H111.379ZM113.51 35.9304C113.51 34.4152 112.718 33.5095 111.397 33.5095C109.952 33.5095 109.318 34.6764 109.318 35.9304C109.318 37.2018 109.952 38.3513 111.432 38.3513C112.876 38.3513 113.51 37.2018 113.51 35.9304Z" fill="#27348B"/>
<path d="M119.658 33.2133V33.6487H116.435V35.5297H119.341V35.9651H116.435V38.1944H119.729V38.6298H115.871V33.2133H119.658Z" fill="#27348B"/>
<path d="M126.898 33.0741C128.659 33.0741 129.558 34.3455 129.558 35.9304C129.558 37.4805 128.659 38.7867 126.915 38.7867C125.172 38.7867 124.273 37.4979 124.273 35.9304C124.273 34.3455 125.189 33.0741 126.898 33.0741ZM129.029 35.9304C129.029 34.4152 128.237 33.5095 126.915 33.5095C125.471 33.5095 124.837 34.6764 124.837 35.9304C124.837 37.2018 125.471 38.3513 126.951 38.3513C128.413 38.3513 129.029 37.2018 129.029 35.9304Z" fill="#27348B"/>
<path d="M134.948 33.2133V33.6487H131.971V35.5471H133.31C134.349 35.5471 135.335 35.9128 135.335 37.132C135.335 37.9506 134.93 38.6472 133.451 38.6472H131.407V33.2307H134.948V33.2133ZM131.971 38.1944H133.081C134.261 38.1944 134.807 38.0551 134.807 37.0971C134.807 36.2089 134.102 35.9651 133.151 35.9651H131.971V38.1944Z" fill="#27348B"/>
<path d="M137.731 38.1944H140.074V33.2133H140.602V38.1944H142.963V33.2133H143.491V38.1944H143.931V39.8664H143.385V38.6298H137.167V33.2133H137.696V38.1944H137.731Z" fill="#27348B"/>
<path d="M149.374 33.2133V33.6487H146.133V35.5297H149.04V35.9651H146.133V38.1944H149.445V38.6298H145.605V33.2133H149.374Z" fill="#27348B"/>
<path d="M155.293 34.7635C155.082 33.823 154.465 33.4921 153.496 33.4921C152.14 33.4921 151.541 34.6241 151.541 35.8955C151.541 37.1147 151.999 38.3339 153.549 38.3339C154.518 38.3339 155.117 37.7069 155.346 36.8535H155.91C155.663 37.8984 154.958 38.7693 153.461 38.7693C151.717 38.7693 151.013 37.4456 151.013 35.913C151.013 33.8578 152.158 33.0566 153.655 33.0566C154.818 33.0566 155.663 33.6488 155.857 34.7809H155.293V34.7635Z" fill="#27348B"/>
<path d="M159.556 38.6298H159.01V33.6487H157.231V33.2133H161.335V33.6487H159.556V38.6298Z" fill="#27348B"/>
<path d="M162.92 33.2133H164.946C166.285 33.2133 166.813 33.7707 166.813 34.5718C166.813 35.3207 166.373 35.6691 165.915 35.7387V35.7562C166.69 35.8781 167.077 36.3832 167.077 37.0972C167.077 38.2293 166.302 38.6299 165.228 38.6299H162.92V33.1959H162.903L162.92 33.2133ZM163.484 35.6168H164.84C165.95 35.6168 166.32 35.2337 166.32 34.5892C166.32 33.9274 165.88 33.6488 164.717 33.6488H163.484V35.6168ZM163.484 38.2119H164.84C166.02 38.2119 166.566 38.0726 166.566 37.1146C166.566 36.2264 165.915 36.0697 164.893 36.0697H163.466V38.2293H163.484V38.2119Z" fill="#27348B"/>
<path d="M171.34 33.0741C173.102 33.0741 174 34.3455 174 35.9304C174 37.4805 173.102 38.7867 171.358 38.7867C169.614 38.7867 168.716 37.4979 168.716 35.9304C168.716 34.3455 169.632 33.0741 171.34 33.0741ZM173.472 35.9304C173.472 34.4152 172.679 33.5095 171.358 33.5095C169.896 33.5095 169.279 34.6764 169.279 35.9304C169.279 37.2018 169.913 38.3513 171.393 38.3513C172.855 38.3513 173.472 37.2018 173.472 35.9304Z" fill="#27348B"/>
<path d="M58.4286 44.9695L61.2294 42.2351H61.934L59.7145 44.3948L62.3215 47.6517H61.6698L59.327 44.7083L58.4286 45.5617V47.6517H57.8826V42.2351H58.4286V44.9695Z" fill="#27348B"/>
<path d="M65.2455 42.0957C67.007 42.0957 67.9053 43.3671 67.9053 44.952C67.9053 46.5021 67.007 47.8083 65.2631 47.8083C63.5192 47.8083 62.6208 46.5195 62.6208 44.952C62.6385 43.4019 63.5721 42.0957 65.2455 42.0957ZM67.3769 44.952C67.3769 43.4368 66.5842 42.5311 65.2631 42.5311C63.801 42.5311 63.1845 43.698 63.1845 44.952C63.1845 46.2234 63.8187 47.3729 65.2983 47.3729C66.7603 47.3729 67.3769 46.2234 67.3769 44.952Z" fill="#27348B"/>
<path d="M73.1724 42.2351V47.6517H72.6439V42.6705H69.9488V45.0218C69.9488 46.9898 69.6141 47.7562 68.9095 47.7562C68.7686 47.7562 68.6629 47.7387 68.5044 47.6865V47.2859C68.6277 47.3033 68.7686 47.3382 68.8743 47.3382C69.2442 47.3382 69.438 46.5544 69.438 44.656V42.2525H73.19L73.1724 42.2351Z" fill="#27348B"/>
<path d="M76.8363 42.0957C78.5978 42.0957 79.4961 43.3671 79.4961 44.952C79.4961 46.5021 78.5978 47.8083 76.8539 47.8083C75.11 47.8083 74.2117 46.5195 74.2117 44.952C74.2117 43.4019 75.1276 42.0957 76.8363 42.0957ZM78.9677 44.952C78.9677 43.4368 78.175 42.5311 76.8539 42.5311C75.3919 42.5311 74.7753 43.698 74.7753 44.952C74.7753 46.2234 75.4095 47.3729 76.8891 47.3729C78.3512 47.3729 78.9677 46.2234 78.9677 44.952Z" fill="#27348B"/>
<path d="M81.0638 47.6517H80.5354V42.2351H82.5787C84.0584 42.2351 84.4635 42.9318 84.4635 43.7503C84.4635 44.9695 83.4771 45.2656 82.4378 45.2656H81.0991V47.6691H81.0815L81.0638 47.6517ZM81.0638 44.8302H82.244C83.2657 44.8302 83.9175 44.656 83.9175 43.7678C83.9175 42.8273 83.3538 42.6705 82.1912 42.6705H81.0815V44.8302H81.0638Z" fill="#27348B"/>
<path d="M89.2722 42.2351V42.6705H86.0663V44.5689H88.9728V44.9869H86.0663V47.2162H89.3779V47.6517H85.5203V42.2351H89.2722Z" fill="#27348B"/>
<path d="M90.8576 44.9695L93.6583 42.2351H94.3629L92.1434 44.3948L94.7504 47.6517H94.0987L91.7559 44.7083L90.8576 45.5617V47.6517H90.3291V42.2351H90.8576V44.9695Z" fill="#27348B"/>
<path d="M97.3398 47.6517H96.8114V42.6705H95.0146V42.2351H99.1365V42.6705H97.3398V47.6517Z" fill="#27348B"/>
<path d="M101.532 42.2351L103.717 47.6517H103.153L102.501 45.9448H99.9293L99.26 47.6517H98.6963L100.916 42.2351H101.515H101.532ZM100.105 45.5094H102.307L101.198 42.6531L100.105 45.5094Z" fill="#27348B"/>
<path d="M108.614 42.2351V47.6517H108.085V42.6705H105.39V45.0218C105.39 46.9898 105.055 47.7562 104.351 47.7562C104.21 47.7562 104.104 47.7387 103.946 47.6865V47.2859C104.069 47.3033 104.21 47.3382 104.315 47.3382C104.685 47.3382 104.879 46.5544 104.879 44.656V42.2525H108.631L108.614 42.2351Z" fill="#27348B"/>
<path d="M110.428 44.569H111.767C112.806 44.569 113.792 44.9347 113.792 46.1539C113.792 46.9724 113.387 47.6691 111.908 47.6691H109.864V42.2526H110.393V44.569H110.41H110.428ZM110.428 47.2337H111.538C112.718 47.2337 113.264 47.0944 113.264 46.1365C113.264 45.2482 112.559 45.0044 111.608 45.0044H110.428V47.2337Z" fill="#27348B"/>
<path d="M115.395 44.5689H118.742V42.2351H119.27V47.6517H118.742V44.9869H115.395V47.6517H114.867V42.2351H115.395V44.5689Z" fill="#27348B"/>
<path d="M121.085 44.569H122.424C123.463 44.569 124.467 44.9347 124.467 46.1539C124.467 46.9724 124.062 47.6691 122.582 47.6691H120.539V42.2526H121.067V44.569H121.085ZM121.085 47.2337H122.195C123.375 47.2337 123.921 47.0944 123.921 46.1365C123.921 45.2482 123.216 45.0044 122.283 45.0044H121.102V47.2337H121.085ZM126.017 47.6691H125.489V42.2526H126.017V47.6691Z" fill="#27348B"/>
<path d="M127.497 42.2351L129.047 44.5167L130.597 42.2351H131.231L129.364 44.8824L131.301 47.6517H130.702L129.047 45.2656L127.409 47.6517H126.792L128.73 44.8824L126.88 42.2351H127.497Z" fill="#27348B"/>
<path d="M134.507 42.2351L136.057 44.5167L137.608 42.2351H138.242L136.375 44.8824L138.312 47.6517H137.696L136.057 45.2656L134.402 47.6517H133.803L135.74 44.8824L133.873 42.2351H134.507Z" fill="#27348B"/>
<path d="M139.633 46.9898L142.927 42.2351H143.544V47.6517H142.98V42.9318L139.739 47.6517H139.105V42.2351H139.633V46.9898Z" fill="#27348B"/>
<path d="M145.323 47.6517H144.794V42.2351H146.838C148.317 42.2351 148.723 42.9318 148.723 43.7503C148.723 44.9695 147.736 45.2656 146.679 45.2656H145.341V47.6691H145.323V47.6517ZM145.323 44.8302H146.503C147.525 44.8302 148.177 44.656 148.177 43.7678C148.177 42.8273 147.613 42.6705 146.45 42.6705H145.341V44.8302H145.323Z" fill="#27348B"/>
<path d="M149.709 42.2352L151.383 46.1539L153.109 42.2352H153.69L151.541 46.955C151.242 47.582 150.96 47.791 150.379 47.791C150.255 47.791 150.132 47.7736 150.044 47.7388V47.3034C150.114 47.3208 150.238 47.3208 150.343 47.3208C150.678 47.3208 150.836 47.1989 150.977 46.9376L151.101 46.7286L149.163 42.2003H149.744V42.2177L149.709 42.2352Z" fill="#27348B"/>
<path d="M154.853 47.6517H154.324V42.2351H156.368C157.847 42.2351 158.252 42.9318 158.252 43.7503C158.252 44.9695 157.266 45.2656 156.209 45.2656H154.853V47.6691V47.6517ZM154.853 44.8302H156.033C157.055 44.8302 157.706 44.656 157.706 43.7678C157.706 42.8273 157.143 42.6705 155.98 42.6705H154.835V44.8302H154.853Z" fill="#27348B"/>
<path d="M162.938 42.2351V42.6705H159.838V47.6517H159.309V42.2351H162.938Z" fill="#27348B"/>
<path d="M166.109 42.0957C167.87 42.0957 168.768 43.3671 168.768 44.952C168.768 46.5021 167.87 47.8083 166.126 47.8083C164.382 47.8083 163.484 46.5195 163.484 44.952C163.484 43.4019 164.4 42.0957 166.091 42.0957H166.109ZM168.24 44.952C168.24 43.4368 167.447 42.5311 166.126 42.5311C164.664 42.5311 164.048 43.698 164.048 44.952C164.048 46.2234 164.682 47.3729 166.161 47.3729C167.606 47.3729 168.24 46.2234 168.24 44.952Z" fill="#27348B"/>
<path d="M169.825 42.2351H171.851C173.19 42.2351 173.718 42.7924 173.718 43.5936C173.718 44.3425 173.278 44.6908 172.82 44.7605V44.7779C173.595 44.8998 173.982 45.4049 173.982 46.119C173.982 47.251 173.207 47.6516 172.15 47.6516H169.843V42.2177H169.825V42.2351ZM170.389 44.6386H171.745C172.855 44.6386 173.225 44.2554 173.225 43.611C173.225 42.9491 172.784 42.6705 171.622 42.6705H170.389V44.6386ZM170.389 47.2336H171.745C172.925 47.2336 173.471 47.0943 173.471 46.1364C173.471 45.2481 172.82 45.074 171.798 45.074H170.371V47.2336H170.389Z" fill="#27348B"/>
<path fill-rule="evenodd" clip-rule="evenodd" d="M23.7449 39.8665C22.7936 39.3092 22.1419 38.3861 21.7896 37.2018C19.5349 35.8607 16.9455 33.0741 14.8317 29.5211C12.2952 25.2018 11.1678 20.9522 11.7139 18.479C11.9076 17.5734 12.3128 16.8941 12.9469 16.5632C12.9998 16.5458 13.035 16.511 13.1231 16.4935C14.8141 15.7795 17.562 17.3121 20.2219 20.2207C21.3845 20.4297 22.6527 20.6038 23.9562 20.7083C20.9441 16.7896 17.3506 14.2816 14.409 14.0552C13.493 13.9856 12.6475 14.1249 11.89 14.5081C11.432 14.7519 11.0445 15.0654 10.7098 15.4485C8.3142 18.2352 8.96595 24.5922 12.5418 30.7925C16.2409 37.2192 21.772 41.2076 25.5416 40.4413C24.9074 40.3716 24.3085 40.18 23.7449 39.8665Z" fill="url(#paint0_linear_111_451)"/>
<path fill-rule="evenodd" clip-rule="evenodd" d="M25.5064 23.1292H25.524H25.5416H25.5592H25.5768L25.5944 23.1118C26.1581 22.2758 26.757 21.492 27.3559 20.7431C26.7923 20.7605 26.1757 20.7605 25.5416 20.7605C25.0132 20.7605 24.4847 20.7083 23.9386 20.6909C22.5999 20.6038 21.3669 20.447 20.2043 20.2032C16.329 19.4543 13.5635 18.0784 13.1055 16.4761C13.0526 16.4935 12.9998 16.5283 12.9293 16.5457C12.2776 16.8767 11.8724 17.5559 11.6963 18.4616C13.493 20.5864 17.4387 22.2758 22.3005 22.8854C23.3221 23.0073 24.379 23.0944 25.4711 23.1292H25.5064Z" fill="url(#paint1_linear_111_451)"/>
<path fill-rule="evenodd" clip-rule="evenodd" d="M37.0088 14.4557C34.1024 14.7169 30.4913 17.0682 27.4087 20.7256C26.8098 21.4746 26.1933 22.2583 25.6472 23.0943L25.6648 23.1117C25.7881 23.3033 25.9114 23.5123 26.0347 23.7387C26.4223 24.418 26.757 25.0624 27.074 25.7242C27.2502 25.4281 27.4087 25.1669 27.5849 24.8882C27.99 24.2438 28.4128 23.6516 28.8355 23.0769C29.5577 22.1016 30.3152 21.2133 31.0726 20.447C33.8029 17.5907 36.5685 16.1451 38.2595 16.8243C38.2771 16.7373 38.3123 16.6328 38.3123 16.5108C38.3123 15.7619 37.8191 15.0653 37.0088 14.4557Z" fill="url(#paint2_linear_111_451)"/>
<path fill-rule="evenodd" clip-rule="evenodd" d="M40.7433 15.7445C39.8626 12.3483 33.6798 9.56163 26.0173 9.33521C17.9673 9.09138 11.3088 11.7735 10.7275 15.3962C11.0622 15.013 11.4498 14.6821 11.9077 14.4557C12.6652 14.0725 13.5107 13.9332 14.4267 14.0028C16.5052 12.5573 20.8385 11.6342 25.8059 11.7213C30.7557 11.8084 34.9833 12.9404 37.0266 14.4557C37.8545 15.0827 38.3301 15.7793 38.3125 16.4934C38.3125 16.5805 38.2949 16.7024 38.2596 16.8069C37.8897 18.4615 35.0537 19.8026 31.0728 20.4296C30.3153 21.2133 29.5755 22.1015 28.8533 23.0595C33.7678 22.6937 37.8193 21.2481 39.7217 19.1756C40.4439 18.4092 40.8666 17.5384 40.8843 16.6676C40.8666 16.3541 40.8314 16.0754 40.7433 15.7619V15.7445Z" fill="url(#paint3_linear_111_451)"/>
<path fill-rule="evenodd" clip-rule="evenodd" d="M27.0564 25.759C26.7394 25.0972 26.4047 24.4354 26.0172 23.7735C25.8939 23.5645 25.7706 23.373 25.6473 23.1465C25.6296 23.1465 25.6296 23.1465 25.5944 23.1465C25.5768 23.1465 25.5416 23.1465 25.524 23.1465C24.4318 23.1291 23.3749 23.0246 22.3533 22.9027C22.7936 23.5297 23.1988 24.1741 23.6039 24.8708C23.7801 25.132 23.921 25.4281 24.0619 25.6894C24.6256 26.7169 25.1012 27.7271 25.524 28.7373C27.2854 33.1262 27.3911 36.8534 25.5063 37.8461C25.4535 37.8635 25.4359 37.8635 25.383 37.8984C26.2814 38.3338 27.4616 38.1074 28.8179 37.3933C29.7868 34.5892 29.1879 30.2525 27.0564 25.7764V25.759Z" fill="url(#paint4_linear_111_451)"/>
<path d="M25.6482 23.1297L25.6301 23.1118L25.6121 23.1297C25.6301 23.1297 25.6301 23.1297 25.6662 23.1297H25.6482Z" fill="#1F3D8D"/>
<path d="M14.8494 38.5777C14.8494 38.5777 12.4714 39.7794 10.8332 42.357C3.99858 35.4601 0 26.9782 0 19.2627C0 11.791 9.35351 0 26.1581 0C42.9627 0 52.193 12.0523 51.7526 20.3599C51.2946 28.9289 42.311 48.5748 25.7882 48.8186C21.6487 48.8708 20.0986 47.8084 20.0986 47.8084C20.0986 47.8084 16.1 51.5356 16.3642 57.4572C11.6963 59.7562 11.2735 60 11.2735 60C11.2735 60 7.92671 49.0972 18.9536 41.5385C22.3181 43.3324 23.7273 43.3846 25.5945 43.3846C35.5997 43.3672 45.9573 29.7649 45.9573 20.3774C46.0101 8.20319 29.5402 5.60813 26.1405 5.50363C16.7342 5.2598 5.61915 11.3208 5.40778 19.5414C5.09071 29.8868 14.8317 38.5777 14.8317 38.5777H14.8494Z" fill="#27348B"/>
<defs>
<linearGradient id="paint0_linear_111_451" x1="18.1785" y1="39.1525" x2="18.1785" y2="13.9681" gradientUnits="userSpaceOnUse">
<stop stop-color="#52AE32"/>
<stop offset="0.231373" stop-color="#52AE32"/>
<stop offset="0.521569" stop-color="#C8D400"/>
<stop offset="0.909804" stop-color="#52AE32"/>
<stop offset="1" stop-color="#52AE32"/>
</linearGradient>
<linearGradient id="paint1_linear_111_451" x1="11.7139" y1="19.6111" x2="27.215" y2="19.6111" gradientUnits="userSpaceOnUse">
<stop stop-color="#009FE3"/>
<stop offset="0.160784" stop-color="#271D67"/>
<stop offset="1" stop-color="#271D67"/>
</linearGradient>
<linearGradient id="paint2_linear_111_451" x1="25.5063" y1="20.0812" x2="38.1186" y2="20.0812" gradientUnits="userSpaceOnUse">
<stop stop-color="#FFDD00"/>
<stop offset="1" stop-color="#E30613"/>
</linearGradient>
<linearGradient id="paint3_linear_111_451" x1="10.7275" y1="16.2496" x2="40.7786" y2="16.2496" gradientUnits="userSpaceOnUse">
<stop stop-color="#271D67"/>
<stop offset="0.34902" stop-color="#271D67"/>
<stop offset="0.890196" stop-color="#009FE3"/>
<stop offset="1" stop-color="#009FE3"/>
</linearGradient>
<linearGradient id="paint4_linear_111_451" x1="25.295" y1="37.6197" x2="25.295" y2="22.746" gradientUnits="userSpaceOnUse">
<stop stop-color="#009640"/>
<stop offset="0.231373" stop-color="#009640"/>
<stop offset="0.521569" stop-color="#C8D400"/>
<stop offset="0.909804" stop-color="#52AE32"/>
<stop offset="1" stop-color="#52AE32"/>
</linearGradient>
</defs>
</svg>
