<svg width="30" height="30" viewBox="0 0 30 30" fill="none" xmlns="http://www.w3.org/2000/svg">
<path opacity="0.5" fill-rule="evenodd" clip-rule="evenodd" d="M4.57037 19.9218H11.836C13.2279 19.9218 13.2279 21.6797 11.836 21.6797H4.57037C3.17854 21.6797 3.17854 19.9218 4.57037 19.9218ZM16.9923 5.85925H22.3244L17.0069 0.512642L16.9923 5.85925ZM15.9962 17.578C15.9962 19.131 16.6205 20.2124 17.4851 21.2454C17.6101 21.3947 17.6791 21.4071 17.8273 21.5476C18.5848 22.2659 19.9311 22.8513 21.0353 22.8513C22.4718 22.8513 23.2129 22.6528 24.3165 21.9139C24.5674 22.082 27.2976 24.8659 27.7589 25.3269C28.0614 25.6294 28.597 26.3083 29.1211 26.3083C29.5726 26.3083 30 25.9481 30 25.3709C30 24.8098 29.391 24.3811 29.0771 24.0672C28.6161 23.6061 25.8322 20.8759 25.6641 20.6248C25.7192 20.4191 25.9169 20.1775 26.0174 19.9819C26.1214 19.7789 26.227 19.4934 26.3022 19.2705C26.8879 17.5352 26.552 15.596 25.4119 14.256C25.1245 13.9183 24.795 13.5605 24.4231 13.3112C24.1288 13.1138 23.9351 12.9934 23.6135 12.8317C21.8832 11.9617 19.7286 12.1676 18.1799 13.3168C17.6722 13.6934 17.27 14.0917 16.9087 14.6239C16.382 15.4002 15.9959 16.5347 15.9959 17.5783L15.9962 17.578ZM4.57037 16.4061H11.836C13.2279 16.4061 13.2279 18.164 11.836 18.164H4.57037C3.17854 18.164 3.17854 16.4061 4.57037 16.4061ZM4.57037 12.8904H11.836C13.2279 12.8904 13.2279 14.6483 11.836 14.6483H4.57037C3.17854 14.6483 3.17854 12.8904 4.57037 12.8904ZM4.57037 9.3747H14.1798C15.5717 9.3747 15.5717 11.1326 14.1798 11.1326H4.57037C3.17854 11.1326 3.17854 9.3747 4.57037 9.3747ZM0 3.04674V26.953C0 28.5124 1.48764 30 3.047 30H19.8049C21.3674 30 22.8519 28.5132 22.8519 26.953V24.4335C22.6153 24.4387 22.3522 24.5203 22.1397 24.5414C19.9658 24.7592 17.9033 24.0931 16.4506 22.6317C14.9389 21.1109 14.2973 19.5889 14.2973 17.2851C14.2973 15.9721 14.7211 15.0101 15.2546 14.0237C15.3634 13.8228 15.4703 13.669 15.6024 13.4925C16.9283 11.7201 18.986 10.5469 21.2697 10.5469C21.5945 10.5469 21.7538 10.5842 22.0854 10.6101C22.34 10.63 22.592 10.7168 22.8519 10.7226V7.61711H16.2894C15.5989 7.61711 15.2348 7.25294 15.2348 6.56245V0H3.04727C1.48791 0 0.000264658 1.48764 0.000264658 3.047L0 3.04674Z" fill="#011640"/>
</svg>
