<svg width="30" height="30" viewBox="0 0 30 30" fill="none" xmlns="http://www.w3.org/2000/svg">
<g clip-path="url(#clip0_337_559)">
<path fill-rule="evenodd" clip-rule="evenodd" d="M-5.36755e-05 24.1407C0.259983 24.5289 2.46086 26.4312 2.46086 26.6015C2.46086 27.0483 1.93353 29.3143 1.93353 29.9414C2.37489 29.8386 4.77082 28.4179 4.98039 28.4179L7.26819 29.5872C7.45655 29.6966 7.84257 29.9211 8.08592 29.9414L7.58349 27.1623C7.49923 26.6714 7.39862 26.6546 7.71775 26.3508C8.0721 26.0133 9.79415 24.3897 9.96089 24.1406L7.20369 23.7336C6.30594 23.6101 6.63191 23.8693 5.70311 22.0116L5.17736 20.9553C5.06273 20.6942 5.1576 20.6878 4.92184 20.6249L3.53903 23.4609C3.38063 23.7481 3.14699 23.6743 2.76241 23.7389L0.919856 24.0058C0.604761 24.0514 0.277834 24.1174 -0.00012207 24.1406L-5.36755e-05 24.1407ZM7.02635 19.2188H23.0556C23.7579 19.2188 22.8234 16.0712 22.7177 15.7947C22.3351 14.7932 21.7504 13.8611 21.0316 13.1464C19.9704 12.0913 19.8538 12.003 18.5303 11.3088C18.1255 11.0964 18.2008 11.1037 17.8215 11.2791C16.181 12.0379 13.9712 12.0479 12.3171 11.3066C11.9101 11.1242 11.9967 11.0781 11.6061 11.2791C9.06171 12.5893 7.50593 14.4328 6.92122 17.3964C6.86617 17.6762 6.88217 18.0143 6.82739 18.3668C6.77842 18.681 6.63718 19.2188 7.02635 19.2188ZM15.041 -0.000107351C14.4088 -0.000107351 13.5635 0.221218 13.1043 0.434815C11.08 1.37709 9.94482 3.53768 10.4415 5.74423C11.0247 8.33551 13.6117 9.90968 16.0429 9.34358C16.8862 9.14722 17.7795 8.67645 18.3769 8.07909C18.6694 7.7865 19.1675 7.09099 19.3428 6.67344C20.8063 3.18866 18.1344 -0.000244141 15.0409 -0.000244141L15.041 -0.000107351ZM10.0195 24.1407C10.2098 24.4248 10.8334 24.9839 11.1181 25.2685C11.5125 25.6629 11.8608 25.9675 12.2625 26.3507C12.6507 26.7208 12.4197 27.0229 12.2378 28.1167L11.8945 30C12.159 29.9383 12.4505 29.7525 12.681 29.6146L14.9999 28.4445L17.3244 29.609C17.5937 29.7541 17.7923 29.927 18.1054 30L17.6028 27.2213C17.499 26.6586 17.3778 26.6434 17.9741 26.1186C18.099 26.0085 18.141 26.0013 18.2673 25.8844C18.584 25.5916 19.6896 24.3354 19.9804 24.2577L17.2017 23.7552C16.3144 23.6328 16.7043 23.9752 15.7421 22.0507C15.5761 21.7186 15.1286 20.9256 15.0586 20.625L13.5594 23.4618C13.4589 23.6589 13.5107 23.6438 13.2717 23.7014L10.0195 24.1406V24.1407ZM20.039 24.1407C20.092 24.3391 20.9257 25.0566 21.1376 25.2685C21.521 25.6519 21.8437 26.0282 22.2761 26.3566C22.6764 26.6605 22.4204 27.1348 22.2573 28.1167C22.2095 28.4047 21.993 29.8354 21.914 30C22.3016 29.9097 23.0731 29.4198 23.4765 29.2187C25.4776 28.2213 24.5474 28.2143 26.5625 29.2187C26.966 29.4198 27.7374 29.9096 28.125 30C28.0032 29.7459 27.8553 28.5045 27.7786 28.1199C27.7169 27.8105 27.6631 27.4539 27.6142 27.1708C27.4657 26.3111 27.502 26.6706 28.3448 25.8251L29.7327 24.4592C29.9019 24.3327 29.9428 24.3551 30.0001 24.1406L26.7482 23.7011C26.3739 23.6204 26.4017 23.3751 26.1136 22.7536C25.9951 22.4977 25.8889 22.3051 25.7618 22.0508C25.5958 21.7187 25.1482 20.9256 25.0782 20.625L23.5791 23.4619C23.4425 23.7297 23.4794 23.6791 22.8346 23.7721L20.9867 24.0335C20.6877 24.0757 20.399 24.1407 20.0391 24.1407H20.039Z" fill="#011640"/>
</g>
<defs>
<clipPath id="clip0_337_559">
<rect width="30" height="30.0001" fill="white"/>
</clipPath>
</defs>
</svg>
