<svg width="30" height="30" viewBox="0 0 30 30" fill="none" xmlns="http://www.w3.org/2000/svg">
<path fill-rule="evenodd" clip-rule="evenodd" d="M0 3.51564V26.4844C0 28.2538 1.74619 30 3.51564 30H15V19.6875H11.25V15H15V11.4844C15 9.60177 15.706 8.23039 16.6546 7.27965C17.1093 6.82393 17.8115 6.35652 18.3985 6.09375C19.8799 5.43048 22.5692 5.62502 24.375 5.62502V10.3125H21.6211C21.0441 10.3125 20.625 10.557 20.625 11.1328V15H25.2539C25.234 15.2398 24.0746 18.036 23.8894 18.4988C23.7433 18.8639 23.5226 19.3224 23.4375 19.6875H20.625V30H26.4844C28.2538 30 30 28.2538 30 26.4844V3.51564C30 1.74619 28.2538 0 26.4844 0H3.51564C1.74619 0 0 1.74619 0 3.51564Z" fill="#1F3D8D"/>
</svg>
