<svg width="17" height="12" viewBox="0 0 17 12" fill="none" xmlns="http://www.w3.org/2000/svg">
<g clip-path="url(#clip0_61_846)">
<path fill-rule="evenodd" clip-rule="evenodd" d="M0.863377 0.133181C1.0591 0.42659 6.40235 5.64489 7.19727 6.50774L7.89412 7.24145C8.60357 7.95484 8.85903 7.48942 9.55429 6.79144L10.2364 6.07627C10.3118 5.98577 10.3992 5.90986 10.4839 5.82477L14.2525 2.04145C14.4151 1.87818 16.0437 0.27269 16.1368 0.133084C16.0182 0.0760056 15.7805 -0.000244141 15.6055 -0.000244141H1.39456C1.21952 -0.000244141 0.981851 0.0760056 0.863281 0.133084L0.863377 0.133181Z" fill="white"/>
<path fill-rule="evenodd" clip-rule="evenodd" d="M0.85498 11.8583C0.981824 11.9237 1.21949 11.9999 1.39453 11.9999H15.6055C15.7805 11.9999 16.0182 11.9237 16.1367 11.8666L10.9986 6.69165L9.93604 7.77494C9.45686 8.256 9.25854 8.5666 8.43365 8.5666C7.65161 8.5666 7.15622 7.86751 6.54932 7.25828C6.40444 7.11279 6.10789 6.84705 6.00977 6.69996L0.855029 11.8583H0.85498Z" fill="white"/>
<path fill-rule="evenodd" clip-rule="evenodd" d="M11.7124 5.99158L16.8589 11.1748C16.9118 10.974 16.9999 10.8363 16.9999 10.5999V1.39989C16.9999 1.16341 16.9118 1.02574 16.8671 0.833252L11.7124 5.99158Z" fill="white"/>
<path fill-rule="evenodd" clip-rule="evenodd" d="M0 1.39989V10.5999C0 10.8364 0.0881218 10.974 0.132808 11.1665L5.28755 6.0082L0.141081 0.824951C0.0881218 1.02579 0 1.16346 0 1.39989H0Z" fill="white"/>
</g>
<defs>
<clipPath id="clip0_61_846">
<rect width="17" height="12" fill="white"/>
</clipPath>
</defs>
</svg>
