<svg width="43" height="27" viewBox="0 0 43 27" fill="none" xmlns="http://www.w3.org/2000/svg">
<path fill-rule="evenodd" clip-rule="evenodd" d="M0 12.904C0 15.3589 0.222096 17.1667 1.25947 19.2298C2.80284 22.2996 4.60034 24.1417 7.67041 25.6958C10.9503 27.3561 15.951 27.4619 19.1763 25.836C20.2151 25.3123 20.0448 25.4534 21.1644 24.712C24.1702 22.7218 26.3711 18.5381 26.3711 14.0005C26.3711 13.5465 26.3733 11.5546 25.9511 11.5546H13.4375V16.1933H20.9961C20.9961 17.5435 19.6079 19.5397 18.5138 20.3635C17.8397 20.8711 17.2132 21.2465 16.3259 21.5398C14.3005 22.2095 11.9073 22.1798 10.021 21.2267C8.18275 20.2978 6.65644 18.9468 5.86566 16.9656C5.16763 15.2166 4.90665 13.6052 5.34003 11.6038C5.7876 9.53702 7.00858 7.74585 8.68566 6.52955C10.9359 4.89766 13.8855 4.53546 16.5217 5.58979C17.2444 5.87877 18.352 6.51989 18.7285 7.08461L19.675 6.26398C20.007 5.94312 20.271 5.66201 20.5971 5.33447C21.1212 4.80831 22.1191 3.99934 22.4238 3.5423C21.9905 2.89242 19.808 1.49113 18.9451 1.13192C16.5072 0.117047 15.5286 0 12.8496 0C8.69052 0 4.8766 2.42851 2.45863 5.67396C1.96911 6.33082 1.67153 6.93807 1.28764 7.70292C0.656866 8.95956 0 11.0595 0 12.904H0ZM35.1894 11.9763H31.2422V15.9403H35.1894V19.9042H39.1367V15.9403H43V11.9763H39.1367V8.09669H35.1894V11.9763Z" fill="#D80000"/>
</svg>
