<svg width="19" height="19" viewBox="0 0 19 19" fill="none" xmlns="http://www.w3.org/2000/svg">
<path fill-rule="evenodd" clip-rule="evenodd" d="M5.60412 7.89889C5.45558 4.87233 8.04158 2.03493 11.0935 2.02818C12.8017 2.02818 13.9495 2.45379 15.2189 3.58199C16.2587 4.50752 16.9609 6.13565 16.9609 7.52057C16.9609 9.18248 16.522 10.412 15.3945 11.6348C14.3682 12.7427 12.9435 13.2967 11.4581 13.3778C10.0672 13.4521 8.35892 12.8103 7.37989 11.8037C6.28607 10.6687 5.68515 9.50676 5.61087 7.89889H5.60412ZM19 7.08821V8.29748C18.9257 9.19599 18.6962 10.108 18.2708 10.9998C17.1905 13.29 15.0434 14.9248 12.5451 15.3302C11.08 15.5666 9.58778 15.3234 8.23063 14.7492C7.42715 14.4047 7.38664 13.9588 6.65068 14.7897C6.24556 15.2491 4.69936 16.7354 4.1457 17.2893C3.76084 17.6744 3.28145 18.2081 2.86283 18.5324C2.47797 18.8296 2.10661 18.9715 1.76226 19.0053H1.44492C0.62118 18.9242 0.0270078 18.1946 0 17.465V17.3434C0.0472637 16.2287 1.3774 15.1951 2.14037 14.4317C2.45771 14.1142 4.55757 12.0807 4.63184 11.8983C4.77363 11.5808 4.53056 11.297 4.38202 11.0403C4.23348 10.7903 4.10519 10.4323 4.01066 10.1621C3.29495 8.12859 3.48401 5.85191 4.53056 3.97382C5.79993 1.69715 8.04833 0.237911 10.6478 0.0352391C15.1514 -0.32957 18.6692 3.07531 18.9932 7.09496L19 7.08821Z" fill="#08415F"/>
<path fill-rule="evenodd" clip-rule="evenodd" d="M11.1678 3.1091C10.1955 3.25097 9.85794 3.33204 8.99369 3.8252C8.44003 4.14272 7.85261 4.73047 7.49476 5.25742C7.15041 5.77085 6.53598 6.79772 7.40698 7.16253C8.79113 7.74352 8.22397 5.55467 10.6884 4.81154C11.951 4.43322 12.8288 4.95341 13.1461 4.99394C14.1049 5.11555 14.4358 3.88601 13.6458 3.48742C12.9368 3.12936 11.9443 2.99425 11.1678 3.10234V3.1091Z" fill="#08415F"/>
</svg>
