<svg width="17" height="20" viewBox="0 0 17 20" fill="none" xmlns="http://www.w3.org/2000/svg">
<g clip-path="url(#clip0_61_503)">
<path fill-rule="evenodd" clip-rule="evenodd" d="M0 19.1003V19.4893C0 19.7287 0.26047 19.998 0.491999 19.998H16.508C16.7395 19.998 17 19.7287 17 19.4893C17 17.8674 16.5775 16.2694 15.6513 14.9886C15.5761 14.8868 15.5356 14.815 15.4603 14.7132L14.8294 13.9591C14.54 13.6599 14.1927 13.3846 13.8686 13.1212C12.873 12.3132 11.1423 11.7207 9.85734 11.7207C8.47974 11.7207 6.89956 11.607 5.57984 11.9482C5.4525 11.9781 5.35989 12.002 5.24991 12.0319C4.85053 12.1517 4.04597 12.5227 3.70446 12.7382C3.26456 13.0135 2.77256 13.3666 2.4079 13.7437L1.75962 14.4379C1.30235 15.0424 1.07082 15.3357 0.706163 16.1197C0.329929 16.9277 0 18.1666 0 19.1003H0ZM3.39768 4.96362C3.39768 5.95115 3.44978 6.63943 3.88968 7.54317C4.19067 8.15365 4.33538 8.37509 4.75213 8.84193L5.18624 9.2908C5.4525 9.54816 5.95608 9.85938 6.28601 10.027C7.9125 10.8768 10.0078 10.6793 11.4549 9.57808C12.3984 8.8539 13.1393 7.86038 13.4287 6.65739C13.8049 5.08931 13.5792 3.49729 12.6646 2.22248L12.1147 1.54018C11.3218 0.720234 9.93837 0.00202942 8.80388 0.00202942C7.84882 0.00202942 7.18318 0.0558948 6.30916 0.510757C5.4525 0.959635 4.9142 1.43245 4.35274 2.19854C3.84917 2.8928 3.39768 4.08382 3.39768 4.96362Z" fill="white"/>
</g>
<defs>
<clipPath id="clip0_61_503">
<rect width="17" height="20" fill="white"/>
</clipPath>
</defs>
</svg>
