<svg width="176" height="60" viewBox="0 0 176 60" fill="none" xmlns="http://www.w3.org/2000/svg">
<g clip-path="url(#clip0_188_146)">
<path d="M80.6023 8.62525C80.0174 7.54878 79.0815 6.7347 77.8359 6.25701C76.6867 5.79951 75.1659 5.58421 73.3285 5.58421H58.485V27.4972H62.2354V19.1142H73.3836C75.2966 19.1142 76.7899 18.946 77.9185 18.6096C79.1434 18.2261 80.0724 17.5331 80.6643 16.5508C81.2286 15.6156 81.4969 14.3508 81.4969 12.6688C81.4488 11.0137 81.1804 9.64791 80.6161 8.61853L80.6023 8.62525ZM73.9891 15.5012H62.2079V9.20386H74.1887C75.51 9.20386 76.4459 9.44607 76.9345 9.92375C77.423 10.4014 77.6914 11.3366 77.6914 12.6553C77.6914 13.7587 77.5194 14.3104 77.3749 14.593C77.2028 14.9294 76.9069 15.1177 76.4665 15.2658C75.9297 15.434 75.0971 15.508 73.9891 15.508V15.5012Z" fill="white"/>
<path d="M111.693 8.57142C111.053 7.34693 110.104 6.48575 108.851 6.00807C107.702 5.57748 106.154 5.36218 104.296 5.36218H95.1569C93.6154 5.36218 92.2941 5.50347 91.2344 5.79277C90.1333 6.10226 89.225 6.57994 88.5368 7.25274C87.8486 7.92554 87.3601 8.78672 87.0435 9.8161C86.7476 10.7984 86.6031 11.996 86.5756 13.4088V19.7533C86.6031 21.1393 86.7476 22.3436 87.0642 23.2989C87.3807 24.3081 87.9243 25.1424 88.6056 25.7681C89.2938 26.3938 90.2228 26.8446 91.3238 27.1339C92.3561 27.3963 93.6498 27.5174 95.1225 27.5174H104.261C105.782 27.5174 107.028 27.4232 108.012 27.2079C109.064 26.9926 109.945 26.5822 110.633 25.9834C111.322 25.3846 111.831 24.5436 112.127 23.5142C112.423 22.5589 112.567 21.2873 112.567 19.7533V13.3819C112.595 11.3232 112.299 9.74209 111.686 8.56469L111.693 8.57142ZM108.879 13.2675V19.76C108.858 21.0518 108.707 21.987 108.466 22.5858C108.273 23.0635 107.929 23.3797 107.385 23.5681C106.725 23.8103 105.693 23.9246 104.296 23.9246H95.1569C94.1797 23.9246 93.3677 23.8506 92.7346 23.7093C92.1703 23.5882 91.7298 23.3729 91.3858 23.1106C91.0692 22.8482 90.8215 22.4647 90.677 21.9601C90.5049 21.4084 90.4086 20.6414 90.3811 19.7533V13.2608C90.4086 12.0901 90.6013 11.1751 90.9178 10.5293C91.2137 9.95738 91.6541 9.57389 92.2391 9.35859C92.9272 9.0962 93.9044 8.95492 95.1293 8.95492H104.268C105.589 8.95492 106.594 9.07602 107.255 9.33841C107.791 9.55371 108.184 9.8901 108.404 10.4149C108.7 11.0406 108.844 11.996 108.872 13.2675H108.879Z" fill="white"/>
<path d="M128.058 16.1202L143.981 5.5573H137.361L124.183 14.3238H121.733V5.57748H117.983V27.5443H121.733V17.9368H124.259L137.706 27.5443H144.202L128.058 16.1202Z" fill="white" stroke="white" stroke-width="0.203402" stroke-miterlimit="22.9256"/>
<path d="M163.945 15.952L174.529 5.57748H169.409L160.958 13.9134L152.501 5.57748H147.553L157.965 15.952L146.108 27.5443H151.228L160.958 18.0377L170.654 27.5443H175.774L163.945 15.952Z" fill="white"/>
<path d="M59.0906 38.6118H58.5538V33.1958H60.6114C62.1047 33.1958 62.5245 33.8888 62.5245 34.7029C62.5245 35.9273 61.5198 36.2099 60.4669 36.2099H59.1181V38.6051H59.0906V38.6118ZM59.0906 35.7861H60.288C61.3202 35.7861 61.9809 35.6179 61.9809 34.7298C61.9809 33.7946 61.4166 33.6264 60.2398 33.6264H59.1112V35.7793H59.0837L59.0906 35.7861Z" fill="white"/>
<path d="M66.8117 33.0545C68.6009 33.0545 69.5093 34.3261 69.5093 35.9072C69.5093 37.4613 68.6009 38.7598 66.8392 38.7598C65.0776 38.7598 64.1692 37.468 64.1692 35.9072C64.1967 34.3261 65.1257 33.0545 66.8186 33.0545H66.8117ZM68.9656 35.9072C68.9656 34.4001 68.1605 33.4851 66.8324 33.4851C65.3597 33.4851 64.7266 34.6558 64.7266 35.9072C64.7266 37.1787 65.3666 38.3292 66.8599 38.3292C68.3325 38.3292 68.9656 37.1787 68.9656 35.9072Z" fill="white"/>
<path d="M75.51 34.7499C75.2898 33.8148 74.6773 33.4784 73.7002 33.4784C72.3307 33.4784 71.7183 34.6019 71.7183 35.8735C71.7183 37.098 72.1862 38.3158 73.7552 38.3158C74.7324 38.3158 75.3449 37.6901 75.5651 36.8289H76.1294C75.8816 37.8852 75.1728 38.7464 73.652 38.7464C71.8903 38.7464 71.1746 37.4277 71.1746 35.8937C71.1746 33.8349 72.3238 33.041 73.8447 33.041C75.0214 33.041 75.8747 33.6398 76.0743 34.7634H75.51V34.7432V34.7499Z" fill="white"/>
<path d="M82.0956 34.7499C81.8754 33.8148 81.263 33.4784 80.2858 33.4784C78.9163 33.4784 78.3039 34.6019 78.3039 35.8735C78.3039 37.098 78.7718 38.3158 80.3339 38.3158C81.3111 38.3158 81.9236 37.6901 82.1438 36.8289H82.7081C82.4603 37.8852 81.7515 38.7464 80.2307 38.7464C78.469 38.7464 77.7534 37.4277 77.7534 35.8937C77.7534 33.8349 78.9026 33.041 80.4234 33.041C81.6001 33.041 82.4535 33.6398 82.653 34.7634H82.0887V34.7432L82.0956 34.7499Z" fill="white"/>
<path d="M85.1373 37.9121L88.468 33.1689H89.0804V38.5849H88.5368V33.8686H88.5161L85.2336 38.5849H84.5936V33.1689H85.1373V37.9121Z" fill="white"/>
<path d="M91.723 37.9121L95.0536 33.1689H95.6661V38.5849H95.1293V33.8686H95.1018L91.8193 38.5849H91.1793V33.1689H91.7161V37.9121H91.723ZM92.6313 31.6147C92.7277 32.0251 93.0236 32.2135 93.464 32.2135C93.9044 32.2135 94.2003 32.0251 94.3242 31.6147H94.6201C94.5444 32.2404 94.0833 32.5701 93.4434 32.5701C92.8034 32.5701 92.3905 32.2135 92.3423 31.6147H92.6382H92.6313Z" fill="white"/>
<path d="M101.866 34.7499C101.646 33.8148 101.034 33.4784 100.057 33.4784C98.6871 33.4784 98.0746 34.6019 98.0746 35.8735C98.0746 37.098 98.5426 38.3158 100.112 38.3158C101.089 38.3158 101.701 37.6901 101.921 36.8289H102.486C102.238 37.8852 101.529 38.7464 100.008 38.7464C98.2467 38.7464 97.531 37.4277 97.531 35.8937C97.531 33.8349 98.6802 33.041 100.201 33.041C101.378 33.041 102.231 33.6398 102.431 34.7634H101.866V34.7432V34.7499Z" fill="white"/>
<path d="M104.908 35.9273L107.743 33.1958H108.459L106.202 35.3487L108.851 38.6118H108.184L105.81 35.6649L104.908 36.5261V38.6118H104.364V33.1958H104.908V35.9273Z" fill="white"/>
<path d="M112.643 33.0545C114.432 33.0545 115.34 34.3261 115.34 35.9072C115.34 37.4613 114.432 38.7598 112.67 38.7598C110.909 38.7598 110 37.468 110 35.9072C110 34.3261 110.929 33.0545 112.643 33.0545ZM114.797 35.9072C114.797 34.4001 113.992 33.4851 112.664 33.4851C111.191 33.4851 110.558 34.6558 110.558 35.9072C110.558 37.1787 111.198 38.3292 112.691 38.3292C114.164 38.3292 114.797 37.1787 114.797 35.9072Z" fill="white"/>
<path d="M121.025 33.1958V33.6264H117.763V35.5169H120.708V35.9475H117.763V38.1745H121.1V38.6118H117.205V33.1958H121.025Z" fill="white"/>
<path d="M128.347 33.0545C130.136 33.0545 131.044 34.3261 131.044 35.9072C131.044 37.4613 130.136 38.7598 128.374 38.7598C126.612 38.7598 125.704 37.468 125.704 35.9072C125.704 34.3261 126.633 33.0545 128.354 33.0545H128.347ZM130.501 35.9072C130.501 34.4001 129.695 33.4851 128.367 33.4851C126.895 33.4851 126.262 34.6558 126.262 35.9072C126.262 37.1787 126.901 38.3292 128.395 38.3292C129.867 38.3292 130.501 37.1787 130.501 35.9072Z" fill="white"/>
<path d="M136.481 33.1958V33.6264H133.467V35.5169H134.815C135.868 35.5169 136.873 35.8735 136.873 37.098C136.873 37.9121 136.46 38.6051 134.96 38.6051H132.902V33.1891H136.481V33.1958ZM133.467 38.1745H134.595C135.792 38.1745 136.336 38.0332 136.336 37.0711C136.336 36.183 135.627 35.9475 134.671 35.9475H133.473V38.1745H133.467Z" fill="white"/>
<path d="M139.302 38.1745H141.676V33.1958H142.213V38.1745H144.594V33.1958H145.131V38.1745H145.571V39.8565H145.034V38.6118H138.738V33.1958H139.275V38.1745H139.302Z" fill="white"/>
<path d="M151.083 33.1958V33.6264H147.801V35.5169H150.739V35.9475H147.801V38.1745H151.159V38.6118H147.264V33.1958H151.083Z" fill="white"/>
<path d="M157.063 34.7499C156.843 33.8148 156.231 33.4784 155.254 33.4784C153.884 33.4784 153.272 34.6019 153.272 35.8735C153.272 37.098 153.74 38.3158 155.309 38.3158C156.286 38.3158 156.898 37.6901 157.118 36.8289H157.683C157.435 37.8852 156.726 38.7464 155.205 38.7464C153.444 38.7464 152.728 37.4277 152.728 35.8937C152.728 33.8349 153.877 33.041 155.398 33.041C156.575 33.041 157.428 33.6398 157.628 34.7634H157.063V34.7432V34.7499Z" fill="white"/>
<path d="M161.371 38.6118H160.835V33.6264H159.018V33.1958H163.181V33.6264H161.371V38.6118Z" fill="white"/>
<path d="M164.778 33.1958H166.835C168.184 33.1958 168.721 33.7475 168.721 34.5616C168.721 35.3016 168.28 35.6649 167.812 35.7322V35.7591C168.597 35.8802 168.989 36.3848 168.989 37.098C168.989 38.2216 168.205 38.632 167.124 38.632H164.798V33.1958H164.771H164.778ZM165.342 35.5909H166.711C167.84 35.5909 168.205 35.2074 168.205 34.5616C168.205 33.8888 167.764 33.6264 166.588 33.6264H165.342V35.5909ZM165.342 38.1745H166.711C167.909 38.1745 168.452 38.0332 168.452 37.0711C168.452 36.183 167.792 36.0148 166.76 36.0148H165.314V38.1678H165.342V38.1745Z" fill="white"/>
<path d="M173.304 33.0545C175.093 33.0545 176.001 34.3261 176.001 35.9072C176.001 37.4613 175.093 38.7598 173.331 38.7598C171.57 38.7598 170.661 37.468 170.661 35.9072C170.661 34.3261 171.59 33.0545 173.304 33.0545ZM175.458 35.9072C175.458 34.4001 174.646 33.4851 173.325 33.4851C171.852 33.4851 171.219 34.6558 171.219 35.9072C171.219 37.1787 171.859 38.3292 173.352 38.3292C174.825 38.3292 175.458 37.1787 175.458 35.9072Z" fill="white"/>
<path d="M59.0906 44.9563L61.9327 42.2247H62.6484L60.3912 44.3777L63.0406 47.6407H62.38L59.999 44.6939L59.0906 45.5551V47.6407H58.5538V42.2247H59.0906V44.9563Z" fill="white"/>
<path d="M65.9997 42.0834C67.7889 42.0834 68.6973 43.355 68.6973 44.9361C68.6973 46.4903 67.7889 47.7887 66.0272 47.7887C64.2655 47.7887 63.3572 46.497 63.3572 44.9361C63.3847 43.3819 64.3137 42.0834 66.0066 42.0834H65.9997ZM68.1536 44.9361C68.1536 43.429 67.3485 42.514 66.0203 42.514C64.5477 42.514 63.9146 43.6847 63.9146 44.9361C63.9146 46.2077 64.5546 47.3582 66.0479 47.3582C67.5205 47.3582 68.1536 46.2077 68.1536 44.9361Z" fill="white"/>
<path d="M74.0098 42.2247V47.6407H73.473V42.6553H70.7548V45.0034C70.7548 46.9679 70.4107 47.7349 69.7019 47.7349C69.5574 47.7349 69.4542 47.708 69.2822 47.6609V47.2505C69.406 47.2774 69.5505 47.2976 69.6469 47.2976C70.0116 47.2976 70.2112 46.5037 70.2112 44.6131V42.218H74.0098V42.2247Z" fill="white"/>
<path d="M77.7121 42.0834C79.5013 42.0834 80.4097 43.355 80.4097 44.9361C80.4097 46.4903 79.5013 47.7887 77.7396 47.7887C75.9779 47.7887 75.0696 46.497 75.0696 44.9361C75.0696 43.3819 75.9986 42.0834 77.7121 42.0834ZM79.866 44.9361C79.866 43.429 79.054 42.514 77.7327 42.514C76.2601 42.514 75.627 43.6847 75.627 44.9361C75.627 46.2077 76.267 47.3582 77.7603 47.3582C79.2329 47.3582 79.866 46.2077 79.866 44.9361Z" fill="white"/>
<path d="M81.9993 47.6407H81.4625V42.2247H83.5201C85.0134 42.2247 85.4332 42.9177 85.4332 43.7318C85.4332 44.9563 84.4285 45.2388 83.3756 45.2388H82.0268V47.634H81.9993V47.6407ZM81.9993 44.815H83.1967C84.2289 44.815 84.8895 44.6468 84.8895 43.7587C84.8895 42.8235 84.3252 42.6553 83.1485 42.6553H82.0199V44.8083H81.9924L81.9993 44.815Z" fill="white"/>
<path d="M90.3053 42.2247V42.6553H87.0435V44.5459H89.9888V44.9832H87.0435V47.2101H90.4017V47.6407H86.5067V42.2247H90.3053Z" fill="white"/>
<path d="M91.895 44.9563L94.7371 42.2247H95.4459L93.1956 44.3777L95.8381 47.6407H95.1775L92.8033 44.6939L91.895 45.5551V47.6407H91.3582V42.2247H91.895V44.9563Z" fill="white"/>
<path d="M98.46 47.6407H97.9232V42.6553H96.1065V42.2247H100.277V42.6553H98.46V47.6407Z" fill="white"/>
<path d="M102.699 42.2247L104.901 47.6407H104.337L103.676 45.9386H101.082L100.394 47.6407H99.8294L102.087 42.2247H102.699ZM101.254 45.508H103.484L102.355 42.6553L101.254 45.508Z" fill="white"/>
<path d="M109.856 42.2247V47.6407H109.319V42.6553H106.601V45.0034C106.601 46.9679 106.257 47.7349 105.548 47.7349C105.403 47.7349 105.3 47.708 105.128 47.6609V47.2505C105.252 47.2774 105.397 47.2976 105.493 47.2976C105.858 47.2976 106.057 46.5037 106.057 44.6131V42.218H109.856V42.2247Z" fill="white"/>
<path d="M111.693 44.5459H113.042C114.095 44.5459 115.1 44.9024 115.1 46.1269C115.1 46.941 114.687 47.634 113.187 47.634H111.129V42.218H111.666V44.5391H111.693V44.5459ZM111.693 47.2034H112.822C114.019 47.2034 114.563 47.0621 114.563 46.1C114.563 45.2119 113.854 44.9765 112.898 44.9765H111.7V47.2034H111.693Z" fill="white"/>
<path d="M116.71 44.5459H120.096V42.2247H120.632V47.6407H120.096V44.9832H116.71V47.6407H116.173V42.2247H116.71V44.5459Z" fill="white"/>
<path d="M122.47 44.5459H123.819C124.871 44.5459 125.876 44.9024 125.876 46.1269C125.876 46.941 125.463 47.634 123.963 47.634H121.905V42.218H122.442V44.5391H122.47V44.5459ZM122.47 47.2034H123.598C124.796 47.2034 125.339 47.0621 125.339 46.1C125.339 45.2119 124.631 44.9765 123.674 44.9765H122.477V47.2034H122.47ZM127.466 47.634H126.929V42.218H127.466V47.634Z" fill="white"/>
<path d="M128.959 42.2247L130.528 44.4988L132.097 42.2247H132.737L130.845 44.8621L132.806 47.6407H132.193L130.528 45.2456L128.863 47.6407H128.25L130.212 44.8621L128.326 42.2247H128.959Z" fill="white"/>
<path d="M136.04 42.2247L137.609 44.4988L139.178 42.2247H139.811L137.926 44.8621L139.887 47.6407H139.275L137.609 45.2456L135.944 47.6407H135.331L137.293 44.8621L135.407 42.2247H136.04Z" fill="white"/>
<path d="M141.236 46.9679L144.566 42.2247H145.179V47.6407H144.615V42.9177L141.332 47.6407H140.699V42.2247H141.236V46.9679Z" fill="white"/>
<path d="M146.989 47.6407H146.452V42.2247H148.51C150.003 42.2247 150.423 42.9177 150.423 43.7318C150.423 44.9563 149.418 45.2388 148.365 45.2388H147.016V47.634H146.989V47.6407ZM146.989 44.815H148.186C149.218 44.815 149.879 44.6468 149.879 43.7587C149.879 42.8235 149.315 42.6553 148.138 42.6553H147.009V44.8083H146.982L146.989 44.815Z" fill="white"/>
<path d="M151.427 42.2247L153.12 46.1538L154.861 42.2247H155.446L153.265 46.941C152.969 47.5667 152.68 47.782 152.088 47.782C151.964 47.782 151.84 47.7551 151.744 47.7349V47.3043C151.82 47.3245 151.937 47.3245 152.04 47.3245C152.384 47.3245 152.528 47.2034 152.68 46.941L152.804 46.7257L150.842 42.1978H151.427V42.2247Z" fill="white"/>
<path d="M156.616 47.6407H156.079V42.2247H158.137C159.63 42.2247 160.05 42.9177 160.05 43.7318C160.05 44.9563 159.045 45.2388 157.992 45.2388H156.623V47.634L156.616 47.6407ZM156.616 44.815H157.814C158.846 44.815 159.506 44.6468 159.506 43.7587C159.506 42.8235 158.942 42.6553 157.765 42.6553H156.616V44.8083V44.815Z" fill="white"/>
<path d="M164.798 42.2247V42.6553H161.667V47.6407H161.124V42.2247H164.798Z" fill="white"/>
<path d="M168.012 42.0834C169.801 42.0834 170.71 43.355 170.71 44.9361C170.71 46.4903 169.801 47.7887 168.039 47.7887C166.278 47.7887 165.369 46.497 165.369 44.9361C165.369 43.3819 166.298 42.0834 168.012 42.0834ZM170.166 44.9361C170.166 43.429 169.354 42.514 168.033 42.514C166.56 42.514 165.927 43.6847 165.927 44.9361C165.927 46.2077 166.567 47.3582 168.06 47.3582C169.533 47.3582 170.166 46.2077 170.166 44.9361Z" fill="white"/>
<path d="M171.756 42.2247H173.813C175.162 42.2247 175.699 42.7764 175.699 43.5905C175.699 44.3306 175.258 44.6939 174.79 44.7612V44.7881C175.575 44.9092 175.967 45.4138 175.967 46.1269C175.967 47.2505 175.183 47.6609 174.102 47.6609H171.776V42.2247H171.749H171.756ZM172.32 44.6199H173.689C174.818 44.6199 175.183 44.2364 175.183 43.5905C175.183 42.9177 174.742 42.6553 173.565 42.6553H172.313V44.6199H172.32ZM172.32 47.2034H173.689C174.887 47.2034 175.43 47.0621 175.43 46.1C175.43 45.2119 174.77 45.0437 173.737 45.0437H172.292V47.1967H172.32V47.2034Z" fill="white"/>
<path d="M24.0152 39.8565C23.0587 39.3048 22.398 38.3696 22.0333 37.1989C19.7555 35.8601 17.1336 33.0814 15.0004 29.5089C12.4267 25.1962 11.2981 20.9374 11.8417 18.4683C12.0344 17.56 12.4542 16.8872 13.0873 16.5508C13.1355 16.5306 13.1836 16.5037 13.2593 16.4768C14.9728 15.7569 17.7392 17.2909 20.4368 20.2108C21.6135 20.4261 22.8866 20.5943 24.2079 20.6885C21.1731 16.7594 17.519 14.27 14.5531 14.0278C13.624 13.9538 12.7638 14.1018 12.0069 14.4853C11.5389 14.7275 11.1467 15.037 10.8095 15.4205C8.38717 18.1991 9.0478 24.5705 12.6744 30.7737C16.4248 37.1922 22.0058 41.1953 25.8319 40.4283C25.1919 40.3543 24.5795 40.166 24.0221 39.8565H24.0152Z" fill="white"/>
<path d="M25.8526 20.7423C25.3158 20.7423 24.7722 20.6952 24.2354 20.6683C22.8866 20.5741 21.6411 20.4261 20.4643 20.1906C16.5418 19.4505 13.7548 18.0579 13.2869 16.4566C13.2387 16.4835 13.1905 16.5037 13.1148 16.5306C12.4542 16.867 12.0344 17.5331 11.8693 18.4481C13.6791 20.5808 17.6773 22.2561 22.5976 22.8818C23.6299 23.0029 24.7034 23.0971 25.8044 23.124C25.832 23.124 25.8526 23.124 25.8801 23.124L25.9077 23.0971C26.4719 22.2561 27.0844 21.4689 27.6969 20.7289C27.1326 20.749 26.4995 20.749 25.8595 20.749L25.8526 20.7423Z" fill="white"/>
<path d="M37.4343 14.4449C34.4959 14.7073 30.8418 17.0554 27.7313 20.7221C27.1188 21.4622 26.5064 22.2561 25.9421 23.0904L25.9696 23.1173C26.0935 23.3057 26.2173 23.521 26.3343 23.743C26.7266 24.4158 27.0707 25.0617 27.3872 25.7277C27.5592 25.4384 27.7313 25.1761 27.9033 24.8867C28.3162 24.2409 28.736 23.6421 29.1764 23.0635C29.9127 22.0812 30.6697 21.1931 31.4336 20.4261C34.2 17.5735 36.9939 16.1135 38.7074 16.8065C38.728 16.7123 38.7556 16.6181 38.7556 16.497C38.7556 15.7569 38.267 15.0572 37.4343 14.4382V14.4449Z" fill="white"/>
<path d="M41.2123 15.7367C40.3315 12.3391 34.0624 9.56044 26.3206 9.31823C18.1866 9.07603 11.4496 11.7605 10.8646 15.3801C11.2087 14.9966 11.601 14.6602 12.062 14.4449C12.819 14.0614 13.6792 13.9202 14.6082 13.9874C16.714 12.5477 21.0975 11.6192 26.1211 11.7134C31.1171 11.8076 35.4043 12.9379 37.4619 14.4449C38.2945 15.0706 38.7831 15.7636 38.7625 16.4835C38.7625 16.5777 38.735 16.6988 38.7143 16.793C38.3496 18.4481 35.48 19.7869 31.4405 20.4127C30.6835 21.2065 29.9197 22.0879 29.1833 23.05C34.1587 22.6934 38.2464 21.2267 40.1801 19.168C40.9164 18.401 41.3293 17.5398 41.3568 16.6517C41.3293 16.3422 41.3087 16.0529 41.2123 15.7434V15.7367Z" fill="white"/>
<path d="M41.2123 15.7367C41.288 16.0462 41.3362 16.3355 41.3087 16.645C41.2811 17.5533 40.8683 18.3943 40.1319 19.1612C40.4278 21.6977 39.1272 25.7479 36.5329 29.7982C34.2275 33.364 31.4612 36.0955 29.1352 37.3402C27.7658 38.0601 26.5615 38.2754 25.6531 37.8448C25.6049 37.8179 25.5568 37.7977 25.5086 37.7708C23.6437 36.7145 23.8708 32.9805 25.8045 28.6948C25.4123 27.7125 24.9237 26.6831 24.3319 25.6537C21.9784 30.0336 21.1732 34.3463 22.0541 37.172C22.4188 38.3427 23.0863 39.2779 24.0359 39.8296C24.5727 40.139 25.1852 40.3342 25.8458 40.3812C29.5963 40.7176 34.9363 37.0778 38.7556 31.2312C42.8433 25.0549 43.7792 18.4884 41.2054 15.7367H41.2123Z" fill="white"/>
<path d="M27.3666 25.7479C27.05 25.0751 26.7059 24.4292 26.3137 23.7632C26.1898 23.5479 26.0659 23.3595 25.949 23.1375C25.9283 23.1375 25.9283 23.1375 25.9008 23.1375C25.8733 23.1375 25.8526 23.1375 25.8251 23.1375C24.724 23.1106 23.6436 23.0164 22.6183 22.8953C23.0587 23.521 23.4785 24.1669 23.8914 24.8598C24.0634 25.1222 24.2079 25.4115 24.3593 25.6739C24.9236 26.7033 25.4122 27.7125 25.832 28.715C27.6212 33.0949 27.7175 36.8356 25.8045 37.8179C25.7563 37.8448 25.7288 37.8448 25.6806 37.865C26.5889 38.2956 27.7863 38.0803 29.1627 37.3604C30.1398 34.5616 29.5274 30.222 27.3734 25.7412L27.3666 25.7479Z" fill="white"/>
<path d="M25.949 23.1106L25.9284 23.0836L25.9008 23.1106C25.9284 23.1106 25.9284 23.1106 25.949 23.1106Z" fill="#1F3D8D"/>
<path d="M15.0211 38.558C15.0211 38.558 12.6194 39.7556 10.9541 42.3391C4.04497 35.4429 0.00549316 26.9657 0.00549316 19.2487C0.00549316 11.7739 9.46076 -0.00672913 26.4651 -0.00672913C43.4694 -0.00672913 52.8008 12.0431 52.3604 20.3521C51.8925 28.9235 42.8088 48.5692 26.1004 48.8047C21.9095 48.8518 20.3405 47.7955 20.3405 47.7955C20.3405 47.7955 16.301 51.5295 16.5694 57.4501C11.8418 59.7511 11.422 59.9866 11.422 59.9866C11.422 59.9866 8.04316 49.0872 19.1913 41.5183C22.5977 43.3146 24.0153 43.3617 25.9008 43.3617C36.0167 43.3348 46.5042 29.7309 46.5042 20.3454C46.5524 8.18121 29.8921 5.57076 26.4651 5.46984C16.9617 5.22763 5.71719 11.2895 5.49698 19.5044C5.18043 29.852 15.0279 38.5445 15.0279 38.5445L15.0211 38.558Z" fill="white"/>
</g>
<defs>
<clipPath id="clip0_188_146">
<rect width="176" height="60" fill="white"/>
</clipPath>
</defs>
</svg>
