<svg width="15" height="11" viewBox="0 0 15 11" fill="none" xmlns="http://www.w3.org/2000/svg">
<path fill-rule="evenodd" clip-rule="evenodd" d="M0.76171 0.122234C0.934412 0.391207 5.64903 5.17466 6.35046 5.96559L6.96532 6.63818C7.59132 7.29212 7.81672 6.86551 8.43019 6.22568L9.03207 5.57012C9.09857 5.48715 9.1757 5.41757 9.25048 5.33958L12.5757 1.87155C12.7192 1.72189 14.1561 0.250207 14.2383 0.122234C14.1337 0.0699048 13.924 0 13.7695 0H1.23047C1.07604 0 0.866313 0.0699048 0.76171 0.122234ZM0 1.28333V9.71667C0 9.93342 0.0777523 10.0596 0.117199 10.2361L4.66552 5.50761L0.124501 0.756286C0.0777523 0.940377 0 1.06658 0 1.28333H0ZM10.3345 5.49239L14.8755 10.2437C14.9222 10.0596 15 9.93342 15 9.71667V1.28333C15 1.06658 14.9222 0.940377 14.8828 0.763901L10.3345 5.49239ZM0.754408 10.8702C0.866313 10.9301 1.07604 11 1.23047 11H13.7695C13.924 11 14.1337 10.9301 14.2383 10.8778L9.70457 6.13405L8.76708 7.12708C8.34427 7.56806 8.16928 7.85277 7.44142 7.85277C6.75137 7.85277 6.31427 7.21193 5.77879 6.65348C5.65093 6.5201 5.3893 6.27653 5.30273 6.14167L0.754408 10.8702Z" fill="#011640"/>
</svg>
