<svg width="30" height="30" viewBox="0 0 30 30" fill="none" xmlns="http://www.w3.org/2000/svg">
<path fill-rule="evenodd" clip-rule="evenodd" d="M20.1562 19.8047V18.8672C20.5557 18.6558 22.5021 17.6353 22.903 17.5695C23.2237 17.5169 23.6612 17.5683 23.6719 18.0469C23.4758 18.0926 23.0963 18.3351 22.8125 18.4766C22.4931 18.6358 22.2167 18.7745 21.914 18.9257C21.3326 19.2165 20.729 19.5016 20.1562 19.8047ZM25.4297 10.7812V11.4257C24.6906 11.4257 23.6719 11.2761 23.6719 12.4804C23.6719 12.8929 24.1384 13.3593 24.5508 13.3593H25.4297C25.4297 14.2594 25.3603 15.1172 26.4844 15.1172C26.8169 15.1172 27.0473 14.9614 27.1914 14.7695C27.4687 14.4001 27.4219 13.8485 27.4219 13.3593H28.3008C28.9913 13.3593 29.4903 12.3665 28.9317 11.7323C28.5779 11.3306 27.9668 11.4257 27.4219 11.4257C27.4219 10.6862 27.4912 9.69409 26.4698 9.63789C25.8319 9.60281 25.4297 10.0979 25.4297 10.7812ZM3.22269 3.04691V3.69142C2.44011 3.69142 1.46487 3.63225 1.46487 4.80466C1.46487 5.23414 1.93415 5.68356 2.57811 5.68356H3.22269C3.22269 6.26634 3.09791 7.44138 4.21876 7.44138C5.24065 7.44138 5.21484 6.38552 5.21484 5.68356C5.76813 5.68356 6.97265 5.77492 6.97265 4.68749C6.97265 3.62353 5.79319 3.69142 5.21484 3.69142C5.21484 2.98947 5.24065 1.9336 4.21876 1.9336C3.60491 1.9336 3.22269 2.41901 3.22269 3.04691ZM15.133 0H15.4354C15.6265 0.0373017 15.8283 0.148861 16.0406 0.365612L23.2763 7.60256C23.5504 7.87662 24.1992 8.38168 24.1992 8.84764C24.1992 9.51374 23.7027 9.90233 23.0273 9.90233H20.1562V16.6992C20.5339 16.4463 21.0769 16.2056 21.503 15.9952C22.2819 15.6107 23.1675 15.4374 24.0753 15.7685C24.2939 15.8481 24.5671 16.0009 24.7414 16.1571C25.0677 16.4496 25.502 16.9216 25.5469 17.4609C26.3364 17.4609 26.9639 17.7252 27.4671 18.236C28.065 18.8427 28.125 19.4256 28.125 20.2148C28.8135 20.2721 30 21.4415 30 22.7344C30 24.4399 29.0117 25.1221 27.7704 25.8368C24.786 27.5551 20.0438 30 16.582 30C12.9582 30 11.0329 28.7954 7.83599 28.1992C7.41024 28.1198 6.73957 28.0647 6.39167 27.9443C5.40944 27.6042 5.47276 26.2964 6.49002 26.0556C7.04234 25.9249 10.1594 26.7464 10.723 26.8942C13.4671 27.6134 15.2653 28.4736 18.3259 27.8181L19.9809 27.3637C20.493 27.1578 21.0018 27.0177 21.5203 26.7938C22.8554 26.2172 24.5172 25.4553 25.7787 24.724C26.2156 24.4706 27.4032 23.845 27.7474 23.5287C28.4513 22.8817 27.8672 21.914 27.0117 21.914C26.552 21.914 26.1342 22.2345 25.8017 22.4032L23.5547 23.4961C22.5372 24.0048 21.1349 24.6353 20.0465 24.9684C17.8396 25.6439 17.1051 25.6868 15.022 24.9976L12.0629 23.9723C11.7354 23.8535 11.4489 23.7673 11.0969 23.6492C10.3796 23.4087 9.45831 23.2319 9.02972 23.0797C8.36341 22.843 8.0688 22.0106 8.62438 21.4564C9.17027 20.9119 9.93153 21.3083 10.6286 21.4808C11.3967 21.6708 14.4459 22.7344 14.5898 22.7344C15.0997 22.7344 15.5273 22.1989 15.5273 21.6797C15.5273 21.1005 15.0864 20.9922 14.629 20.7616C14.2371 20.564 13.8689 20.4078 13.4598 20.2317C12.4883 19.8135 12.0637 19.6184 11.0235 19.2695C9.86662 18.8815 8.03122 18.4833 6.74033 18.3964C6.19555 18.3597 5.78993 18.2812 5.15622 18.2812V27.3047C5.15622 27.9326 4.774 28.418 4.16015 28.418H0.937526C-0.298414 28.418 -0.317722 26.4844 0.937526 26.4844H3.16407V17.0508H1.9336V24.7852C1.9336 26.0131 0 26.0635 0 24.7852V15.9375C0 15.5716 0.454403 15.1172 0.820292 15.1172H4.21876C4.88037 15.1172 5.15622 15.6512 5.15622 16.2891C5.42467 16.3516 5.51989 16.3499 5.86038 16.3467L7.89412 16.5394C8.93532 16.685 9.39208 16.8227 10.3711 17.0508V9.90233H7.5C6.86068 9.90233 6.32814 9.5363 6.32814 8.90625C6.32814 8.51234 6.48586 8.36216 6.69376 8.15863L13.9014 0.952128C14.2256 0.627901 14.638 0.0949498 15.133 0V0ZM15.2784 2.32918L20.8152 7.89572C19.9952 7.91793 18.2227 7.61627 18.2227 8.90625V21.2695C18.2227 21.8191 18.6761 22.2656 19.2188 22.2656C20.1339 22.2656 24.766 19.438 25.5546 19.4144C26.0056 19.4009 26.1914 19.597 26.1914 20.0977C25.8127 20.1292 24.4684 20.8712 24.0625 21.0742C23.6876 21.2616 23.3826 21.4142 23.0078 21.6016L20.8794 22.5786C19.8912 23.0195 17.9358 23.7432 16.875 23.4961C17.4464 22.6428 17.4609 22.4206 17.4609 21.4453C17.4609 20.2682 16.4682 19.4006 15.4606 18.9926L13.1507 17.9626C12.8577 17.845 12.5623 17.7603 12.3047 17.6367C12.3047 15.586 12.3047 13.5351 12.3047 11.4844C12.3047 7.87655 12.6854 7.91018 9.72655 7.91018L15.2784 2.32918Z" fill="white"/>
</svg>
