<svg width="19" height="30" viewBox="0 0 19 30" fill="none" xmlns="http://www.w3.org/2000/svg">
<g opacity="0.5">
<path fill-rule="evenodd" clip-rule="evenodd" d="M1.72727 26.6015V6.97265C1.72727 5.99499 2.33325 5.332 3.28182 5.332H6.96669V6.32814C6.96669 6.68746 7.36213 7.08982 7.71513 7.08982H11.3424C11.6955 7.08982 12.0909 6.68746 12.0909 6.32814V5.332H15.7182C16.6668 5.332 17.2727 5.99499 17.2727 6.97265V26.6015C17.2727 27.6112 16.6527 28.2422 15.6606 28.2422H3.33942C2.34732 28.2422 1.72727 27.6112 1.72727 26.6015ZM8.69396 1.75782H10.3636V5.332H8.69396V1.75782ZM6.96669 0.761744V3.57425H2.99396C1.46179 3.57425 0 5.06182 0 6.62109V26.9531C0 28.5124 1.46179 30 2.99396 30H16.006C17.5415 30 19 28.5133 19 26.9531V6.62109C19 5.06182 17.5382 3.57425 16.006 3.57425H12.0909V0.761744C12.0909 0.339937 11.6723 0 11.2273 0H7.71513C7.36213 0 6.96669 0.40243 6.96669 0.761744ZM6.90909 16.9922C6.90909 13.785 10.8594 13.1716 11.8705 15.7516C12.1319 16.4187 12.0909 16.9053 12.0909 17.6367H6.90909V16.9922ZM8.63636 11.543C8.59087 11.2436 8.88961 10.6583 9.45342 10.6196C10.5464 10.5447 10.6799 12.2714 9.54658 12.3491C9.29687 12.3662 9.07899 12.2564 8.93469 12.1182C8.8556 12.0425 8.79957 11.9855 8.75272 11.8933C8.73878 11.8658 8.63854 11.5572 8.63636 11.543ZM6.90909 11.3086C6.90909 12.6775 7.15274 12.3116 7.31214 13.0078C7.0113 13.0791 6.72705 13.4067 6.51508 13.6029C6.48149 13.634 6.4581 13.6536 6.42511 13.6872L5.88333 14.3663C4.98719 15.7909 5.18182 16.8739 5.18182 18.6328C5.18182 18.9921 5.57725 19.3945 5.93033 19.3945H13.0697C13.4227 19.3945 13.8182 18.9921 13.8182 18.6328C13.8182 16.9406 14.0134 15.7101 13.1282 14.3545C12.6687 13.6508 12.3697 13.4138 11.6879 12.9492C12.1327 12.0938 12.2709 11.2628 11.8428 10.3306C10.9443 8.37365 8.10846 8.35275 7.17587 10.2911C7.05591 10.5404 6.90909 10.9674 6.90909 11.3086ZM3.45455 21.914C3.45455 22.4829 3.73499 22.9102 4.20305 22.9102H14.7969C15.791 22.9102 15.791 21.1524 14.7969 21.1524H4.20305C3.84998 21.1524 3.45455 21.5548 3.45455 21.914ZM10.3636 25.4297C10.3636 25.9985 10.644 26.4257 11.1121 26.4257H14.7969C15.791 26.4257 15.791 24.668 14.7969 24.668H11.1121C10.7591 24.668 10.3636 25.0704 10.3636 25.4297ZM3.45455 25.4297C3.45455 25.9985 3.73499 26.4257 4.20305 26.4257H7.88786C8.88192 26.4257 8.88192 24.668 7.88786 24.668H4.20305C3.84998 24.668 3.45455 25.0704 3.45455 25.4297Z" fill=""/>
</g>
</svg>
