<svg width="25" height="25" viewBox="0 0 25 25" fill="none" xmlns="http://www.w3.org/2000/svg">
<path fill-rule="evenodd" clip-rule="evenodd" d="M0 2.9297V22.0703C0 23.5448 1.45516 25 2.9297 25H12.5V16.4062H9.37503V12.5H12.5V9.5703C12.5 8.00147 13.0884 6.85866 13.8789 6.06637C14.2578 5.68661 14.8429 5.2971 15.3321 5.07812C16.5666 4.5254 18.8077 4.68751 20.3125 4.68751V8.59376H18.0176C17.5368 8.59376 17.1875 8.79751 17.1875 9.27733V12.5H21.0449C21.0283 12.6998 20.0622 15.03 19.9079 15.4157C19.7861 15.72 19.6021 16.102 19.5313 16.4062H17.1875V25H22.0703C23.5448 25 25 23.5448 25 22.0703V2.9297C25 1.45516 23.5448 0 22.0703 0H2.9297C1.45516 0 0 1.45516 0 2.9297Z" fill="#1F3D8D"/>
</svg>
