<svg width="25" height="15" viewBox="0 0 25 15" fill="none" xmlns="http://www.w3.org/2000/svg">
<path fill-rule="evenodd" clip-rule="evenodd" d="M0 0.664542C0 1.40393 0.114535 1.60339 0.282646 2.22355C0.406697 2.68129 0.553067 3.05414 0.71841 3.47602C0.880697 3.89022 1.03601 4.28791 1.22055 4.66064C1.30925 4.83987 1.3867 5.05821 1.48521 5.23903C2.3362 6.80122 2.63528 7.43023 3.64251 8.97614C4.25729 9.91965 4.44651 10.126 5.0573 10.9254C5.73667 11.8146 6.76408 12.7032 7.68561 13.3316C9.36632 14.4779 11.7109 15.2879 13.7644 14.8948C15.2727 14.6062 14.3582 13.0532 14.6593 11.0151C14.7131 10.651 14.8898 10.5045 15.2832 10.5045C16.0688 10.5045 17.2665 11.4991 17.7611 12.0156C17.9987 12.2636 18.2218 12.3891 18.4364 12.6734C18.641 12.9445 18.8471 13.1281 19.08 13.3637C19.7868 14.0785 20.2108 15 21.4844 15H23.877C24.6614 15 24.9611 14.7232 25 14.3375V14.1503C24.9477 13.5602 24.4391 12.803 24.1141 12.3598C23.9196 12.0946 23.7604 11.8937 23.5503 11.6379C23.4267 11.4874 23.3839 11.4337 23.254 11.2916L21.0327 8.86871C20.0682 7.88237 20.536 7.79641 21.5723 6.199C21.9508 5.61565 22.3019 5.07774 22.6858 4.49091C23.3722 3.4418 23.6663 2.83049 24.186 1.77985C24.6089 0.924829 24.8211 0.0151819 23.4863 0.0151819H20.9961C20.1661 0.0151819 19.8451 0.368209 19.5869 1.02117C19.3374 1.65212 18.5114 3.23201 18.1854 3.7832C17.7228 4.56513 16.0734 7.25784 15.0879 7.25784C14.4937 7.25784 14.6484 6.27121 14.6484 5.45967C14.6484 4.63804 14.6908 1.73182 14.6459 1.16665C14.5834 0.380775 14.5264 0.0151819 13.6719 0.0151819H9.66794C9.04382 0.0151819 8.48193 0.480595 9.13737 1.30724C9.6007 1.89152 9.91212 2.50212 9.91212 3.3618C9.91212 4.0714 9.97717 7.69134 9.85606 8.09959C9.54106 9.16191 8.23856 7.52084 7.99617 7.21979C7.91497 7.11897 7.87979 7.05708 7.81214 6.9585L6.50975 4.79432C5.79001 3.4769 5.53568 2.71993 5.02933 1.41372C4.94115 1.1863 4.86681 0.9171 4.75309 0.697343C4.49351 0.195648 4.18877 0.0151819 3.46679 0.0151819C2.88419 0.0151819 0.780118 -0.0633407 0.362982 0.136771C0.176301 0.226326 0 0.411217 0 0.664542H0Z" fill="#009FE3"/>
</svg>
