<svg width="20" height="20" viewBox="0 0 20 20" fill="none" xmlns="http://www.w3.org/2000/svg">
<path fill-rule="evenodd" clip-rule="evenodd" d="M9.47117 4.28369C9.47117 4.7428 9.89768 5.10029 10.2404 5.10029C10.6857 5.10029 11.0528 4.60084 11.4544 4.19961C11.8186 3.83564 12.1477 3.5068 12.512 3.14284L13.6116 2.12789C14.5656 1.40978 16.2059 1.4091 17.1576 2.12789L17.5594 2.44697C18.4936 3.38045 18.694 5.05326 18.0093 6.18565L17.6153 6.70461C17.6085 6.71182 17.5985 6.72192 17.5918 6.72912C17.585 6.73638 17.5751 6.74654 17.5684 6.75386L13.1441 11.172C11.9877 12.2541 10.0687 12.2079 9.05023 11.1891C8.44202 10.5806 7.59616 10.8468 7.59616 11.7293C7.59616 12.0373 8.02852 12.4015 8.22016 12.5469C9.11667 13.2273 10.2416 13.6318 11.4948 13.5111C12.664 13.3985 13.6747 12.8906 14.4358 12.1263L18.0649 8.49889C19.1646 7.40008 20 6.39115 20 4.61996C20 0.713747 15.2418 -1.7954 11.863 1.58164C11.4266 2.01777 11.0253 2.41855 10.589 2.85462C10.3 3.1433 9.47117 3.82016 9.47117 4.28369ZM0 15.3801C0 19.282 4.75623 21.7973 8.13703 18.4184C8.57336 17.9822 8.97465 17.5815 9.41104 17.1454C9.95128 16.6057 10.9826 15.8751 10.303 15.1734C9.61835 14.4666 9.05886 15.2877 8.54565 15.8004L6.3857 17.8695C5.50049 18.4667 4.26732 18.5997 3.30029 18.1352C2.90592 17.9457 2.56011 17.6975 2.29231 17.3649C2.2181 17.2727 2.21838 17.2849 2.14331 17.1776C2.03241 17.019 1.95621 16.8934 1.87381 16.7263C1.42278 15.8107 1.51278 14.7031 1.9867 13.8104C2.11282 13.5728 2.21514 13.4779 2.38487 13.2956L6.40614 9.24332C6.57161 9.07652 6.69 8.9947 6.85621 8.82835C7.92909 7.75451 9.92635 7.78708 10.9498 8.81088C11.558 9.41937 12.4038 9.15322 12.4038 8.27069C12.4038 7.73658 11.3011 7.12054 10.8817 6.90932C9.10826 6.01601 6.91356 6.51863 5.56421 7.87371L1.93508 11.5011C0.835349 12.5999 0 13.6089 0 15.3801H0Z" fill="#27348B"/>
</svg>
