<svg width="30" height="30" viewBox="0 0 30 30" fill="none" xmlns="http://www.w3.org/2000/svg">
<g opacity="0.5">
<path fill-rule="evenodd" clip-rule="evenodd" d="M15 0C23.2843 0 30 6.71564 30 15C30 23.2844 23.2843 30 15 30C6.71565 30 0 23.2844 0 15C0 6.71564 6.71565 0 15 0ZM9.73073 22.1401V19.3893L14.987 15.0403C15.3356 14.7529 15.6327 14.4785 15.8845 14.2267C16.1331 13.9716 16.3268 13.7069 16.4624 13.4389C16.5981 13.1677 16.6658 12.8675 16.6658 12.5381C16.6658 12.1732 16.5884 11.8633 16.4334 11.6082C16.2816 11.3499 16.0685 11.153 15.7974 11.0141C15.5262 10.8721 15.2162 10.8043 14.861 10.8043C14.5091 10.8043 14.1992 10.8753 13.9311 11.0174C13.66 11.1594 13.4533 11.3661 13.308 11.6438C13.1595 11.9182 13.0884 12.254 13.0884 12.6479H9.4562C9.4562 11.6567 9.67573 10.8043 10.1213 10.0876C10.5669 9.37079 11.1965 8.82196 12.0068 8.43773C12.8172 8.05024 13.7697 7.8598 14.861 7.8598C15.9911 7.8598 16.9693 8.0374 17.7959 8.39899C18.6224 8.75739 19.2649 9.26429 19.7137 9.91644C20.1657 10.5655 20.3917 11.3307 20.3917 12.2056C20.3917 12.748 20.2819 13.284 20.056 13.8199C19.83 14.3526 19.4264 14.9435 18.8452 15.5924C18.264 16.2382 17.4343 17.0098 16.3624 17.901L15.0419 19.002V19.0859H20.5436V22.1402H9.73073V22.1401Z" fill="white"/>
</g>
</svg>
