<svg width="30" height="30" viewBox="0 0 30 30" fill="none" xmlns="http://www.w3.org/2000/svg">
<path fill-rule="evenodd" clip-rule="evenodd" d="M15 0C23.2844 0 30 6.71559 30 15C30 23.2843 23.2842 29.9999 15 29.9999C6.71561 29.9999 0 23.2843 0 15C0 6.71559 6.71561 0 15 0ZM14.9242 22.2372C13.8167 22.2372 12.832 22.0434 11.9699 21.6626C11.1112 21.2784 10.4364 20.7488 9.94562 20.0774C9.45483 19.4026 9.20633 18.6276 9.20301 17.7496H13.0548C13.0581 18.0207 13.1419 18.263 13.3066 18.476C13.468 18.6891 13.6908 18.8571 13.975 18.9763C14.2592 19.0958 14.5852 19.1539 14.9532 19.1539C15.3052 19.1539 15.6182 19.0925 15.8896 18.9666C16.1576 18.8374 16.3706 18.6631 16.5225 18.4403C16.6743 18.2142 16.7452 17.956 16.7419 17.6687C16.7452 17.3845 16.6612 17.1327 16.4837 16.9132C16.3061 16.6904 16.0607 16.5193 15.7444 16.3967C15.4281 16.2708 15.0632 16.2094 14.65 16.2094H13.2197V13.5684H14.65C15.031 13.5684 15.3666 13.507 15.6573 13.3811C15.9479 13.2583 16.1771 13.0874 16.3385 12.8677C16.5032 12.6449 16.5805 12.3931 16.5774 12.1089C16.5808 11.8345 16.516 11.5922 16.3773 11.3792C16.2383 11.1692 16.0479 11.0045 15.8025 10.8853C15.5571 10.7658 15.2729 10.7077 14.9532 10.7077C14.6045 10.7077 14.2946 10.7691 14.0202 10.8917C13.7491 11.0176 13.5327 11.1887 13.3778 11.4084C13.2228 11.6279 13.1422 11.8797 13.1357 12.1639H9.47766C9.48077 11.3018 9.71973 10.543 10.1879 9.88131C10.6594 9.21939 11.3051 8.70289 12.1251 8.32516C12.9453 7.95053 13.8881 7.76344 14.9534 7.76344C15.9931 7.76344 16.9133 7.93768 17.714 8.29302C18.5146 8.64504 19.1411 9.12917 19.5931 9.74587C20.0451 10.3626 20.2679 11.0697 20.2648 11.864C20.2745 12.6518 20.0032 13.2975 19.4543 13.8012C18.9086 14.3081 18.2145 14.6052 17.375 14.6954V14.8084C18.5115 14.9312 19.3672 15.2766 19.9418 15.8481C20.5132 16.4196 20.7974 17.1362 20.7877 17.9983C20.791 18.8249 20.5456 19.5545 20.0484 20.1938C19.5479 20.8298 18.8602 21.3303 17.9755 21.6918C17.0942 22.0567 16.0771 22.2374 14.9244 22.2374L14.9242 22.2372Z" fill="white"/>
</svg>
