<svg width="30" height="30" viewBox="0 0 30 30" fill="none" xmlns="http://www.w3.org/2000/svg">
<g opacity="0.5">
<path fill-rule="evenodd" clip-rule="evenodd" d="M15 0C23.2844 0 30 6.71556 30 15C30 23.2844 23.2844 29.9999 15 29.9999C6.71557 29.9999 0 23.2844 0 15C0 6.71556 6.71557 0 15 0ZM8.93173 19.8429V16.8726L14.6014 7.9551H15.8672H17.2975H19.4447V16.8726H21.0686V19.8429H19.4447V22.0448H15.7833C15.7833 21.3107 15.7855 20.577 15.7888 19.8429H8.9321H8.93173ZM15.8508 11.9199H15.7571L12.7029 16.7628V16.8726H15.8089C15.8227 15.2221 15.8391 13.5715 15.8508 11.9199Z" fill="white"/>
</g>
</svg>
