<svg width="25" height="25" viewBox="0 0 25 25" fill="none" xmlns="http://www.w3.org/2000/svg">
<g clip-path="url(#clip0_61_506)">
<path fill-rule="evenodd" clip-rule="evenodd" d="M7.37385 10.3933C7.17839 6.41096 10.581 2.67754 14.5967 2.66865C16.8444 2.66865 18.3547 3.22867 20.0249 4.71315C21.393 5.93095 22.317 8.07323 22.317 9.89549C22.317 12.0822 21.7395 13.7 20.2559 15.309C18.9055 16.7668 17.0309 17.4957 15.0764 17.6023C13.2463 17.7001 10.9986 16.8557 9.71038 15.5312C8.27114 14.0378 7.48046 12.5089 7.38273 10.3933H7.37385ZM25 9.32659V10.9177C24.9023 12.1 24.6002 13.3 24.0405 14.4734C22.619 17.4868 19.7939 19.638 16.5068 20.1713C14.5789 20.4824 12.6155 20.1624 10.8298 19.4068C9.77257 18.9535 9.71926 18.3668 8.75089 19.4602C8.21784 20.0646 6.18337 22.0202 5.45487 22.7491C4.94847 23.2558 4.3177 23.9581 3.76688 24.3847C3.26048 24.7759 2.77186 24.9625 2.31876 25.007H1.90121C0.817342 24.9003 0.0355366 23.9403 0 22.9803V22.8202C0.0621891 21.3535 1.81237 19.9935 2.81628 18.989C3.23383 18.5713 5.9968 15.8956 6.09453 15.6556C6.28109 15.2378 5.96127 14.8645 5.76581 14.5267C5.57036 14.1978 5.40156 13.7267 5.27719 13.3711C4.33547 10.6955 4.58422 7.69988 5.96127 5.22871C7.63149 2.23309 10.5899 0.313039 14.0103 0.0463664C19.936 -0.433645 24.5647 4.04646 24.9911 9.33548L25 9.32659Z" fill="#08415F"/>
<path fill-rule="evenodd" clip-rule="evenodd" d="M14.6942 4.09091C13.4149 4.27758 12.9707 4.38425 11.8335 5.03315C11.105 5.45094 10.3321 6.22429 9.86125 6.91764C9.40816 7.59322 8.5997 8.94436 9.74576 9.42437C11.567 10.1888 10.8207 7.30876 14.0635 6.33096C15.7248 5.83317 16.8797 6.51763 17.2973 6.57097C18.5588 6.73097 18.9942 5.11315 17.9547 4.5887C17.0219 4.11757 15.7159 3.93979 14.6942 4.08202V4.09091Z" fill="#08415F"/>
</g>
<defs>
<clipPath id="clip0_61_506">
<rect width="25" height="25" fill="white"/>
</clipPath>
</defs>
</svg>
