<svg width="15" height="15" viewBox="0 0 15 15" fill="none" xmlns="http://www.w3.org/2000/svg">
<g clip-path="url(#clip0_470_325)">
<path fill-rule="evenodd" clip-rule="evenodd" d="M0 1.08602C0 3.22042 0.376344 5.08064 1.27957 7.01612C1.62366 7.75268 2.02688 8.47311 2.50538 9.1344C2.67742 9.37096 3.05376 9.88709 3.23118 10.0753L4.03763 10.9677L4.91935 11.7581C5.15591 11.9785 5.80107 12.4516 6.09677 12.6613C8.03763 14.0323 11.0699 15.0054 13.4194 15.0054H13.8011C14.1021 14.9946 14.3656 14.9409 14.6505 14.6559C14.7258 14.5806 14.8226 14.4516 14.8763 14.3548C14.9247 14.2688 15 14.043 15 13.9247V10.9355C15 10.6075 14.7312 10.2366 14.457 10.043C14.1505 9.83333 13.7043 9.82795 13.2151 9.82257C12.2796 9.81182 11.043 9.35483 10.7527 9.35483C10.2634 9.35483 10.0161 9.60752 9.70968 9.8387L8.23118 10.9409C8.12903 10.8871 8.02151 10.8226 7.91398 10.7581C7.7957 10.6882 7.69355 10.6344 7.58065 10.5645C7.24194 10.3495 7.11828 10.2849 6.81183 10.043C6.75269 9.99462 6.72043 9.97849 6.66129 9.9301L5.7043 9.06989C5.36559 8.7043 5.16667 8.49999 4.86021 8.06451L4.06989 6.77419C4.25269 6.42473 5.08602 5.43548 5.3871 5.01612C5.90323 4.30107 5.52688 3.82258 5.38172 3.09139C5.30107 2.67741 5.22043 2.26344 5.18817 1.82258C5.13978 1.18817 5.27957 0.650532 4.61828 0.193543C4.51613 0.123651 4.23118 0.00537109 4.07527 0.00537109H1.08602C0.967742 0.00537109 0.752688 0.0806399 0.672043 0.123651C0.322581 0.30107 0 0.720425 0 1.09139L0 1.08602Z" fill="#011640"/>
</g>
<defs>
<clipPath id="clip0_470_325">
<rect width="15" height="15" fill="white"/>
</clipPath>
</defs>
</svg>
