<svg width="44" height="26" viewBox="0 0 44 26" fill="none" xmlns="http://www.w3.org/2000/svg">
<path fill-rule="evenodd" clip-rule="evenodd" d="M0 1.15199C0 2.4336 0.201582 2.77933 0.497458 3.85427C0.715787 4.6477 0.973397 5.29397 1.2644 6.02522C1.55003 6.74317 1.82337 7.4325 2.14817 8.07857C2.30428 8.38923 2.4406 8.76768 2.61396 9.08111C4.11172 11.7889 4.6381 12.8792 6.41082 15.5588C7.49283 17.1942 7.82585 17.5519 8.90085 18.9375C10.0965 20.4787 11.9048 22.0189 13.5267 23.1082C16.4847 25.0951 20.6112 26.4992 24.2254 25.8178C26.8799 25.3175 25.2704 22.6256 25.8004 19.093C25.895 18.4619 26.2061 18.208 26.8985 18.208C28.281 18.208 30.3891 19.9318 31.2596 20.8271C31.6776 21.2571 32.0704 21.4746 32.4481 21.9674C32.8082 22.4373 33.1709 22.7555 33.5808 23.1638C34.8247 24.4028 35.571 26.0001 37.8125 26.0001H42.0235C43.404 26.0001 43.9315 25.5203 44 24.8518V24.5272C43.9079 23.5044 43.0128 22.1921 42.4407 21.4238C42.0985 20.9641 41.8182 20.6158 41.4485 20.1725C41.2309 19.9117 41.1557 19.8185 40.927 19.5723L37.0176 15.3726C35.32 13.6629 36.1434 13.5139 37.9673 10.7451C38.6333 9.73392 39.2514 8.80153 39.9271 7.78437C41.1351 5.96591 41.6527 4.90631 42.5673 3.08519C43.3117 1.60316 43.6851 0.0264373 41.3359 0.0264373H36.9532C35.4924 0.0264373 34.9274 0.638351 34.473 1.77015C34.0339 2.8638 32.5801 5.60228 32.0063 6.55768C31.1922 7.91301 28.2891 12.5804 26.5547 12.5804C25.5089 12.5804 25.7812 10.8702 25.7812 9.46355C25.7812 8.0394 25.8558 3.00195 25.7768 2.02232C25.6668 0.660132 25.5665 0.0264373 24.0625 0.0264373H17.0156C15.9171 0.0264373 14.9282 0.833153 16.0818 2.266C16.8972 3.27876 17.4453 4.33714 17.4453 5.82725C17.4453 7.05721 17.5598 13.3318 17.3467 14.0394C16.7923 15.8808 14.4999 13.0363 14.0733 12.5144C13.9303 12.3397 13.8684 12.2324 13.7494 12.0615L11.4572 8.31028C10.1904 6.02675 9.7428 4.71467 8.85162 2.45057C8.69643 2.05637 8.56559 1.58976 8.36543 1.20885C7.90857 0.339246 7.37224 0.0264373 6.10155 0.0264373C5.07618 0.0264373 1.37301 -0.109668 0.638849 0.237192C0.310289 0.39242 0 0.712898 0 1.15199H0Z" fill="#009FE3"/>
</svg>
